<svg width="38" height="37" viewBox="0 0 38 37" fill="none" xmlns="http://www.w3.org/2000/svg">
<path d="M29.2156 12.2382H25.9917C25.8057 12.238 25.6219 12.1982 25.4525 12.1213C25.2831 12.0444 25.1321 11.9322 25.0095 11.7923L23.7019 10.3159C23.6052 10.2078 23.4868 10.1213 23.3544 10.062C23.222 10.0028 23.0786 9.97217 22.9335 9.97217C22.7885 9.97217 22.6451 10.0028 22.5127 10.062C22.3803 10.1213 22.2619 10.2078 22.1652 10.3159L21.0444 11.5814C20.8638 11.7873 20.6414 11.9524 20.3921 12.0656C20.1427 12.1789 19.8721 12.2377 19.5982 12.2382H1.95422C1.44552 13.6962 1.12358 15.2128 0.996094 16.7517H17.6518C17.7961 16.7515 17.9389 16.722 18.0715 16.665C18.204 16.6081 18.3237 16.5248 18.4231 16.4202L19.9778 14.7992C20.074 14.7 20.1892 14.6211 20.3166 14.5672C20.4439 14.5134 20.5808 14.4857 20.719 14.4859H20.7793C20.9246 14.4866 21.0683 14.5174 21.201 14.5766C21.3338 14.6357 21.4529 14.7218 21.5506 14.8294L22.8582 16.3057C22.9806 16.446 23.1315 16.5583 23.301 16.6352C23.4704 16.7122 23.6544 16.7519 23.8405 16.7517H37.429C37.3043 15.2123 36.9823 13.6954 36.4708 12.2382H29.2397H29.2156Z" fill="#FFFBF2"/>
<path d="M11.0686 26.2421C11.2127 26.2412 11.3553 26.2114 11.4878 26.1545C11.6203 26.0976 11.74 26.0147 11.8399 25.9107L13.3885 24.2897C13.4854 24.1912 13.6007 24.1129 13.7279 24.0591C13.8551 24.0053 13.9916 23.9772 14.1297 23.9764H14.196C14.3414 23.977 14.485 24.0079 14.6178 24.067C14.7506 24.1261 14.8696 24.2122 14.9673 24.3198L16.2689 25.7962C16.392 25.9355 16.5431 26.0472 16.7124 26.1241C16.8817 26.2009 17.0653 26.2412 17.2512 26.2421H35.6725C36.3743 24.7992 36.881 23.2692 37.179 21.6925H19.4928C19.3083 21.6919 19.1261 21.6523 18.9579 21.5765C18.7897 21.5008 18.6393 21.3904 18.5166 21.2526L17.209 19.7763C17.1125 19.6667 16.9939 19.5789 16.8609 19.5186C16.7279 19.4584 16.5837 19.4271 16.4377 19.4268C16.2924 19.4263 16.1488 19.4574 16.0167 19.5177C15.8846 19.578 15.7672 19.6662 15.6724 19.7763L14.5515 21.0417C14.3692 21.2467 14.1455 21.4107 13.8952 21.5229C13.6449 21.635 13.3736 21.6929 13.0993 21.6925H1.24023C1.53531 23.273 2.03991 24.8071 2.74069 26.2542L11.0686 26.2421Z" fill="#FFFBF2"/>
<path d="M24.1361 7.30345C24.2813 7.30338 24.425 7.27398 24.5585 7.21703C24.6921 7.16008 24.8128 7.07675 24.9134 6.97203L26.4621 5.35707C26.5576 5.25642 26.6725 5.17622 26.7999 5.12132C26.9273 5.06642 27.0645 5.03797 27.2033 5.0377H27.2696C27.4148 5.03728 27.5584 5.06831 27.6905 5.12864C27.8226 5.18897 27.9401 5.27717 28.0348 5.3872L29.3425 6.86356C29.4666 7.00119 29.618 7.1114 29.7872 7.18715C29.9563 7.26289 30.1394 7.30251 30.3247 7.30345H33.8258C32.1225 5.03556 29.915 3.19505 27.3777 1.92747C24.8405 0.659884 22.0431 0 19.2068 0C16.3706 0 13.5732 0.659884 11.0359 1.92747C8.49869 3.19505 6.29115 5.03556 4.58789 7.30345H24.1361Z" fill="#FFFBF2"/>
<path d="M17.0983 30.7623H12.3076C12.1225 30.762 11.9396 30.7221 11.7712 30.6451C11.6028 30.5682 11.4528 30.4561 11.3314 30.3163L10.0298 28.84C9.93262 28.7317 9.8137 28.6451 9.68081 28.5858C9.54791 28.5265 9.40403 28.4958 9.25851 28.4958C9.11299 28.4958 8.9691 28.5265 8.8362 28.5858C8.70331 28.6451 8.58439 28.7317 8.48719 28.84L7.36034 30.1295C7.18 30.3357 6.95766 30.501 6.70824 30.6143C6.45881 30.7276 6.18805 30.7863 5.91411 30.7864H5.8418C7.55197 32.6208 9.62141 34.0837 11.9213 35.0839C14.2212 36.0842 16.7024 36.6003 19.2104 36.6003C21.7183 36.6003 24.1995 36.0842 26.4994 35.0839C28.7993 34.0837 30.8687 32.6208 32.5789 30.7864L17.0983 30.7623Z" fill="#FFFBF2"/>
</svg>
