<svg id="polygon" data-name="polygon" xmlns="http://www.w3.org/2000/svg" xmlns:xlink="http://www.w3.org/1999/xlink" viewBox="0 0 261.92 224.53"><defs><style>.cls-1{fill:none;}.cls-2{clip-path:url(#clip-path);}.cls-3{fill:#8247e5;}</style><clipPath id="clip-path"><rect class="cls-1" y="-0.23" width="1024" height="225"/></clipPath></defs><g class="cls-2"><path class="cls-3" d="M197.65,68.59a16.85,16.85,0,0,0-16.43,0l-37.7,21.84-25.61,14.24L80.22,126.5a16.85,16.85,0,0,1-16.43,0l-30-17.09a16.29,16.29,0,0,1-8.22-13.76V62a15.35,15.35,0,0,1,8.22-13.77L63.31,31.57a16.85,16.85,0,0,1,16.43,0l29.47,16.61A16.32,16.32,0,0,1,117.43,62V83.78L143,69.07V47.23a15.33,15.33,0,0,0-8.21-13.76L80.22,2.14a16.85,16.85,0,0,0-16.43,0L8.22,33.47A15.32,15.32,0,0,0,0,47.23v63.13a15.35,15.35,0,0,0,8.22,13.77l55.57,31.33a16.85,16.85,0,0,0,16.43,0l37.69-21.36,25.61-14.72L181.22,98a16.85,16.85,0,0,1,16.43,0l29.48,16.62a16.31,16.31,0,0,1,8.21,13.76v33.7a15.36,15.36,0,0,1-8.21,13.77L197.65,193a16.85,16.85,0,0,1-16.43,0l-29.48-16.61a16.34,16.34,0,0,1-8.22-13.77V140.74l-25.61,14.72v21.83a15.35,15.35,0,0,0,8.22,13.77l55.57,31.33a16.85,16.85,0,0,0,16.43,0l55.58-31.33a16.33,16.33,0,0,0,8.21-13.77V114.16a15.34,15.34,0,0,0-8.21-13.76Z"/></g></svg>
