<svg width="416" height="89" viewBox="0 0 416 89" fill="none" xmlns="http://www.w3.org/2000/svg">
<mask id="path-1-outside-1_0_15" maskUnits="userSpaceOnUse" x="0" y="0" width="416" height="89" fill="black">
<rect fill="white" width="416" height="89"/>
<path d="M27.457 74.4932C23.4157 74.4932 20.1572 73.2342 17.6816 70.7163C15.2272 68.1984 14 64.6755 14 60.1475V34.376C14 28.9593 15.0685 24.8122 17.2056 21.9346C19.3638 19.057 22.8656 17.6182 27.7109 17.6182C30.3558 17.6182 32.7044 18.1048 34.7568 19.0781C36.8304 20.0514 38.4596 21.5114 39.6445 23.458C40.8294 25.3835 41.4219 27.8167 41.4219 30.7578V40.4062H30.3135V32.1543C30.3135 30.4827 30.1019 29.3613 29.6787 28.79C29.2555 28.1976 28.5996 27.9014 27.7109 27.9014C26.6742 27.9014 25.9759 28.2822 25.6162 29.0439C25.2565 29.7845 25.0767 30.779 25.0767 32.0273V59.9888C25.0767 61.5334 25.2988 62.623 25.7432 63.2578C26.2087 63.8926 26.8646 64.21 27.7109 64.21C28.6631 64.21 29.3296 63.8185 29.7104 63.0356C30.1125 62.2528 30.3135 61.2371 30.3135 59.9888V49.9277H41.5488V60.4966C41.5488 65.4054 40.311 68.9707 37.8354 71.1924C35.3599 73.3929 31.9004 74.4932 27.457 74.4932Z"/>
<path d="M45.1035 73.9854V18.126H56.7832V31.1069C57.3968 29.3296 58.3384 28.0177 59.6079 27.1714C60.8774 26.3039 62.3586 25.8701 64.0513 25.8701C67.3521 25.8701 69.7536 26.9069 71.2559 28.9805C72.7581 31.054 73.5093 33.8364 73.5093 37.3276V73.9854H62.02V38.0576C62.02 37.0208 61.7979 36.1745 61.3535 35.5186C60.9303 34.8626 60.2533 34.5347 59.3223 34.5347C58.5394 34.5347 57.9152 34.8732 57.4497 35.5503C57.0054 36.2274 56.7832 37.0314 56.7832 37.9624V73.9854H45.1035Z"/>
<path d="M86.6489 74.4932C84.0041 74.4932 81.9834 73.8796 80.5869 72.6523C79.2116 71.4251 78.27 69.743 77.7622 67.606C77.2544 65.4689 77.0005 63.0462 77.0005 60.3379C77.0005 57.4391 77.2861 55.0693 77.8574 53.2285C78.4287 51.3665 79.402 49.8431 80.7773 48.6582C82.1738 47.4733 84.0887 46.4683 86.522 45.6431L93.5679 43.231V38.3433C93.5679 35.783 92.7321 34.5029 91.0605 34.5029C89.5371 34.5029 88.7754 35.5397 88.7754 37.6133V40.4697H77.7305C77.7093 40.3005 77.6987 40.0889 77.6987 39.835C77.6987 39.5599 77.6987 39.2531 77.6987 38.9146C77.6987 34.175 78.8096 30.8213 81.0312 28.8535C83.2741 26.8646 86.8182 25.8701 91.6636 25.8701C94.2026 25.8701 96.4772 26.325 98.4873 27.2349C100.497 28.1235 102.084 29.446 103.248 31.2021C104.433 32.9583 105.025 35.1271 105.025 37.7085V73.9854H93.7266V68.3359C93.1764 70.3249 92.2666 71.8483 90.9971 72.9062C89.7275 73.9642 88.2782 74.4932 86.6489 74.4932ZM91.124 65.6699C92.055 65.6699 92.6898 65.2785 93.0283 64.4956C93.3669 63.7127 93.5361 62.8664 93.5361 61.9565V48.6899C91.9704 49.3247 90.7537 50.1287 89.8862 51.1021C89.0187 52.0542 88.585 53.4613 88.585 55.3232V61.4487C88.585 64.2629 89.4313 65.6699 91.124 65.6699Z"/>
<path d="M109.342 23.458V14H120.704V23.458H109.342ZM109.342 73.9854V26.3779H120.704V73.9854H109.342Z"/>
<path d="M125.211 73.9854V26.3779H136.573V32.4399C136.996 30.6203 137.779 29.0757 138.922 27.8062C140.086 26.5155 141.694 25.8701 143.746 25.8701C147.047 25.8701 149.438 26.8857 150.919 28.917C152.421 30.9482 153.172 33.7306 153.172 37.2642V73.9854H141.969V38.4385C141.969 37.5075 141.778 36.6506 141.397 35.8677C141.017 35.0636 140.361 34.6616 139.43 34.6616C138.562 34.6616 137.917 34.9684 137.494 35.582C137.092 36.1745 136.838 36.9256 136.732 37.8354C136.626 38.7241 136.573 39.6128 136.573 40.5015V73.9854H125.211Z"/>
<path d="M157.33 73.9854V18.126H168.121V73.9854H157.33Z"/>
<path d="M172.564 73.9854V18.126H187.926C191.946 18.126 194.972 19.2474 197.003 21.4902C199.034 23.7119 200.05 26.9704 200.05 31.2656V57.418C200.05 62.7077 199.119 66.7913 197.257 69.6689C195.416 72.5466 192.179 73.9854 187.545 73.9854H172.564ZM183.8 64.1147H185.736C187.788 64.1147 188.814 63.1203 188.814 61.1313V32.313C188.814 30.451 188.561 29.2555 188.053 28.7266C187.566 28.1764 186.561 27.9014 185.038 27.9014H183.8V64.1147Z"/>
<path d="M204.62 73.9854V18.126H226.964V28.917H215.982V39.8032H226.52V50.3086H215.982V63.0991H227.694V73.9854H204.62Z"/>
<path d="M259.908 74.4932C254.809 74.4932 251.127 73.2236 248.863 70.6846C246.62 68.1455 245.499 64.1042 245.499 58.5605V53.1016H256.544V60.084C256.544 61.3747 256.734 62.3903 257.115 63.1309C257.517 63.8503 258.205 64.21 259.178 64.21C260.194 64.21 260.892 63.9137 261.273 63.3213C261.675 62.7288 261.876 61.7555 261.876 60.4014C261.876 58.6875 261.707 57.2593 261.368 56.1167C261.03 54.953 260.437 53.8527 259.591 52.8159C258.766 51.758 257.612 50.5308 256.131 49.1343L251.117 44.3735C247.372 40.84 245.499 36.7987 245.499 32.2495C245.499 27.4888 246.599 23.86 248.8 21.3633C251.021 18.8665 254.227 17.6182 258.417 17.6182C263.537 17.6182 267.166 18.9829 269.303 21.7124C271.461 24.4419 272.54 28.589 272.54 34.1538H261.178V30.3135C261.178 29.5518 260.956 28.9593 260.511 28.5361C260.088 28.113 259.506 27.9014 258.766 27.9014C257.877 27.9014 257.221 28.1553 256.798 28.6631C256.396 29.1497 256.195 29.7845 256.195 30.5674C256.195 31.3503 256.406 32.1966 256.83 33.1064C257.253 34.0163 258.089 35.0636 259.337 36.2485L265.78 42.4375C267.07 43.6647 268.255 44.966 269.334 46.3413C270.414 47.6955 271.281 49.2824 271.937 51.1021C272.593 52.9006 272.921 55.1011 272.921 57.7036C272.921 62.951 271.948 67.0664 270.001 70.0498C268.076 73.012 264.711 74.4932 259.908 74.4932Z"/>
<path d="M276.476 73.9854V18.126H288.155V31.1069C288.769 29.3296 289.71 28.0177 290.98 27.1714C292.25 26.3039 293.731 25.8701 295.423 25.8701C298.724 25.8701 301.126 26.9069 302.628 28.9805C304.13 31.054 304.881 33.8364 304.881 37.3276V73.9854H293.392V38.0576C293.392 37.0208 293.17 36.1745 292.726 35.5186C292.302 34.8626 291.625 34.5347 290.694 34.5347C289.911 34.5347 289.287 34.8732 288.822 35.5503C288.377 36.2274 288.155 37.0314 288.155 37.9624V73.9854H276.476Z"/>
<path d="M309.293 23.458V14H320.655V23.458H309.293ZM309.293 73.9854V26.3779H320.655V73.9854H309.293Z"/>
<path d="M338.492 74.4932C335.107 74.4932 332.409 73.8584 330.399 72.5889C328.389 71.3193 326.95 69.4891 326.083 67.0981C325.215 64.7072 324.781 61.8296 324.781 58.4653V39.3271C324.781 34.9049 326.051 31.5618 328.59 29.2979C331.129 27.0127 334.62 25.8701 339.063 25.8701C348.204 25.8701 352.774 30.3558 352.774 39.3271V42.7866C352.774 46.9761 352.732 49.7902 352.647 51.229H336.144V60.4331C336.144 61.2795 336.196 62.1152 336.302 62.9404C336.408 63.7445 336.641 64.411 337 64.9399C337.381 65.4689 337.984 65.7334 338.81 65.7334C339.994 65.7334 340.735 65.2256 341.031 64.21C341.327 63.1732 341.476 61.8296 341.476 60.1792V55.6089H352.774V58.3066C352.774 61.8613 352.33 64.8447 351.441 67.2568C350.574 69.6478 349.093 71.4569 346.998 72.6841C344.924 73.8901 342.089 74.4932 338.492 74.4932ZM336.08 45.5796H341.476V39.1685C341.476 37.4546 341.264 36.2274 340.841 35.4868C340.418 34.7251 339.783 34.3442 338.937 34.3442C338.027 34.3442 337.318 34.7039 336.81 35.4233C336.323 36.1427 336.08 37.3911 336.08 39.1685V45.5796Z"/>
<path d="M356.9 73.9854V18.126H368.453V73.9854H356.9Z"/>
<path d="M382.386 74.4932C380.186 74.4932 378.44 74.0911 377.149 73.2871C375.859 72.4831 374.896 71.3722 374.261 69.9546C373.626 68.5369 373.203 66.876 372.992 64.9717C372.801 63.0674 372.706 61.0256 372.706 58.8462V38.1528C372.706 34.4923 373.351 31.5301 374.642 29.2661C375.954 27.0021 378.165 25.8701 381.275 25.8701C383.582 25.8701 385.348 26.3674 386.576 27.3618C387.824 28.3351 388.787 29.6999 389.464 31.4561V18.126H401.017V73.9854H389.464V68.939C388.829 70.6528 387.983 72.007 386.925 73.0015C385.888 73.9959 384.375 74.4932 382.386 74.4932ZM386.734 65.6064C387.813 65.6064 388.533 65.1727 388.893 64.3052C389.273 63.4377 389.464 61.8825 389.464 59.6396V39.6128C389.464 38.4914 389.295 37.3911 388.956 36.312C388.639 35.2118 387.919 34.6616 386.798 34.6616C385.571 34.6616 384.798 35.18 384.481 36.2168C384.164 37.2536 384.005 38.3856 384.005 39.6128V59.6396C384.005 63.6175 384.915 65.6064 386.734 65.6064Z"/>
</mask>
<path d="M27.457 74.4932C23.4157 74.4932 20.1572 73.2342 17.6816 70.7163C15.2272 68.1984 14 64.6755 14 60.1475V34.376C14 28.9593 15.0685 24.8122 17.2056 21.9346C19.3638 19.057 22.8656 17.6182 27.7109 17.6182C30.3558 17.6182 32.7044 18.1048 34.7568 19.0781C36.8304 20.0514 38.4596 21.5114 39.6445 23.458C40.8294 25.3835 41.4219 27.8167 41.4219 30.7578V40.4062H30.3135V32.1543C30.3135 30.4827 30.1019 29.3613 29.6787 28.79C29.2555 28.1976 28.5996 27.9014 27.7109 27.9014C26.6742 27.9014 25.9759 28.2822 25.6162 29.0439C25.2565 29.7845 25.0767 30.779 25.0767 32.0273V59.9888C25.0767 61.5334 25.2988 62.623 25.7432 63.2578C26.2087 63.8926 26.8646 64.21 27.7109 64.21C28.6631 64.21 29.3296 63.8185 29.7104 63.0356C30.1125 62.2528 30.3135 61.2371 30.3135 59.9888V49.9277H41.5488V60.4966C41.5488 65.4054 40.311 68.9707 37.8354 71.1924C35.3599 73.3929 31.9004 74.4932 27.457 74.4932Z" fill="#FFD666"/>
<path d="M45.1035 73.9854V18.126H56.7832V31.1069C57.3968 29.3296 58.3384 28.0177 59.6079 27.1714C60.8774 26.3039 62.3586 25.8701 64.0513 25.8701C67.3521 25.8701 69.7536 26.9069 71.2559 28.9805C72.7581 31.054 73.5093 33.8364 73.5093 37.3276V73.9854H62.02V38.0576C62.02 37.0208 61.7979 36.1745 61.3535 35.5186C60.9303 34.8626 60.2533 34.5347 59.3223 34.5347C58.5394 34.5347 57.9152 34.8732 57.4497 35.5503C57.0054 36.2274 56.7832 37.0314 56.7832 37.9624V73.9854H45.1035Z" fill="#FFD666"/>
<path d="M86.6489 74.4932C84.0041 74.4932 81.9834 73.8796 80.5869 72.6523C79.2116 71.4251 78.27 69.743 77.7622 67.606C77.2544 65.4689 77.0005 63.0462 77.0005 60.3379C77.0005 57.4391 77.2861 55.0693 77.8574 53.2285C78.4287 51.3665 79.402 49.8431 80.7773 48.6582C82.1738 47.4733 84.0887 46.4683 86.522 45.6431L93.5679 43.231V38.3433C93.5679 35.783 92.7321 34.5029 91.0605 34.5029C89.5371 34.5029 88.7754 35.5397 88.7754 37.6133V40.4697H77.7305C77.7093 40.3005 77.6987 40.0889 77.6987 39.835C77.6987 39.5599 77.6987 39.2531 77.6987 38.9146C77.6987 34.175 78.8096 30.8213 81.0312 28.8535C83.2741 26.8646 86.8182 25.8701 91.6636 25.8701C94.2026 25.8701 96.4772 26.325 98.4873 27.2349C100.497 28.1235 102.084 29.446 103.248 31.2021C104.433 32.9583 105.025 35.1271 105.025 37.7085V73.9854H93.7266V68.3359C93.1764 70.3249 92.2666 71.8483 90.9971 72.9062C89.7275 73.9642 88.2782 74.4932 86.6489 74.4932ZM91.124 65.6699C92.055 65.6699 92.6898 65.2785 93.0283 64.4956C93.3669 63.7127 93.5361 62.8664 93.5361 61.9565V48.6899C91.9704 49.3247 90.7537 50.1287 89.8862 51.1021C89.0187 52.0542 88.585 53.4613 88.585 55.3232V61.4487C88.585 64.2629 89.4313 65.6699 91.124 65.6699Z" fill="#FFD666"/>
<path d="M109.342 23.458V14H120.704V23.458H109.342ZM109.342 73.9854V26.3779H120.704V73.9854H109.342Z" fill="#FFD666"/>
<path d="M125.211 73.9854V26.3779H136.573V32.4399C136.996 30.6203 137.779 29.0757 138.922 27.8062C140.086 26.5155 141.694 25.8701 143.746 25.8701C147.047 25.8701 149.438 26.8857 150.919 28.917C152.421 30.9482 153.172 33.7306 153.172 37.2642V73.9854H141.969V38.4385C141.969 37.5075 141.778 36.6506 141.397 35.8677C141.017 35.0636 140.361 34.6616 139.43 34.6616C138.562 34.6616 137.917 34.9684 137.494 35.582C137.092 36.1745 136.838 36.9256 136.732 37.8354C136.626 38.7241 136.573 39.6128 136.573 40.5015V73.9854H125.211Z" fill="#FFD666"/>
<path d="M157.33 73.9854V18.126H168.121V73.9854H157.33Z" fill="#FFD666"/>
<path d="M172.564 73.9854V18.126H187.926C191.946 18.126 194.972 19.2474 197.003 21.4902C199.034 23.7119 200.05 26.9704 200.05 31.2656V57.418C200.05 62.7077 199.119 66.7913 197.257 69.6689C195.416 72.5466 192.179 73.9854 187.545 73.9854H172.564ZM183.8 64.1147H185.736C187.788 64.1147 188.814 63.1203 188.814 61.1313V32.313C188.814 30.451 188.561 29.2555 188.053 28.7266C187.566 28.1764 186.561 27.9014 185.038 27.9014H183.8V64.1147Z" fill="#FFD666"/>
<path d="M204.62 73.9854V18.126H226.964V28.917H215.982V39.8032H226.52V50.3086H215.982V63.0991H227.694V73.9854H204.62Z" fill="#FFD666"/>
<path d="M259.908 74.4932C254.809 74.4932 251.127 73.2236 248.863 70.6846C246.62 68.1455 245.499 64.1042 245.499 58.5605V53.1016H256.544V60.084C256.544 61.3747 256.734 62.3903 257.115 63.1309C257.517 63.8503 258.205 64.21 259.178 64.21C260.194 64.21 260.892 63.9137 261.273 63.3213C261.675 62.7288 261.876 61.7555 261.876 60.4014C261.876 58.6875 261.707 57.2593 261.368 56.1167C261.03 54.953 260.437 53.8527 259.591 52.8159C258.766 51.758 257.612 50.5308 256.131 49.1343L251.117 44.3735C247.372 40.84 245.499 36.7987 245.499 32.2495C245.499 27.4888 246.599 23.86 248.8 21.3633C251.021 18.8665 254.227 17.6182 258.417 17.6182C263.537 17.6182 267.166 18.9829 269.303 21.7124C271.461 24.4419 272.54 28.589 272.54 34.1538H261.178V30.3135C261.178 29.5518 260.956 28.9593 260.511 28.5361C260.088 28.113 259.506 27.9014 258.766 27.9014C257.877 27.9014 257.221 28.1553 256.798 28.6631C256.396 29.1497 256.195 29.7845 256.195 30.5674C256.195 31.3503 256.406 32.1966 256.83 33.1064C257.253 34.0163 258.089 35.0636 259.337 36.2485L265.78 42.4375C267.07 43.6647 268.255 44.966 269.334 46.3413C270.414 47.6955 271.281 49.2824 271.937 51.1021C272.593 52.9006 272.921 55.1011 272.921 57.7036C272.921 62.951 271.948 67.0664 270.001 70.0498C268.076 73.012 264.711 74.4932 259.908 74.4932Z" fill="#FFD666"/>
<path d="M276.476 73.9854V18.126H288.155V31.1069C288.769 29.3296 289.71 28.0177 290.98 27.1714C292.25 26.3039 293.731 25.8701 295.423 25.8701C298.724 25.8701 301.126 26.9069 302.628 28.9805C304.13 31.054 304.881 33.8364 304.881 37.3276V73.9854H293.392V38.0576C293.392 37.0208 293.17 36.1745 292.726 35.5186C292.302 34.8626 291.625 34.5347 290.694 34.5347C289.911 34.5347 289.287 34.8732 288.822 35.5503C288.377 36.2274 288.155 37.0314 288.155 37.9624V73.9854H276.476Z" fill="#FFD666"/>
<path d="M309.293 23.458V14H320.655V23.458H309.293ZM309.293 73.9854V26.3779H320.655V73.9854H309.293Z" fill="#FFD666"/>
<path d="M338.492 74.4932C335.107 74.4932 332.409 73.8584 330.399 72.5889C328.389 71.3193 326.95 69.4891 326.083 67.0981C325.215 64.7072 324.781 61.8296 324.781 58.4653V39.3271C324.781 34.9049 326.051 31.5618 328.59 29.2979C331.129 27.0127 334.62 25.8701 339.063 25.8701C348.204 25.8701 352.774 30.3558 352.774 39.3271V42.7866C352.774 46.9761 352.732 49.7902 352.647 51.229H336.144V60.4331C336.144 61.2795 336.196 62.1152 336.302 62.9404C336.408 63.7445 336.641 64.411 337 64.9399C337.381 65.4689 337.984 65.7334 338.81 65.7334C339.994 65.7334 340.735 65.2256 341.031 64.21C341.327 63.1732 341.476 61.8296 341.476 60.1792V55.6089H352.774V58.3066C352.774 61.8613 352.33 64.8447 351.441 67.2568C350.574 69.6478 349.093 71.4569 346.998 72.6841C344.924 73.8901 342.089 74.4932 338.492 74.4932ZM336.08 45.5796H341.476V39.1685C341.476 37.4546 341.264 36.2274 340.841 35.4868C340.418 34.7251 339.783 34.3442 338.937 34.3442C338.027 34.3442 337.318 34.7039 336.81 35.4233C336.323 36.1427 336.08 37.3911 336.08 39.1685V45.5796Z" fill="#FFD666"/>
<path d="M356.9 73.9854V18.126H368.453V73.9854H356.9Z" fill="#FFD666"/>
<path d="M382.386 74.4932C380.186 74.4932 378.44 74.0911 377.149 73.2871C375.859 72.4831 374.896 71.3722 374.261 69.9546C373.626 68.5369 373.203 66.876 372.992 64.9717C372.801 63.0674 372.706 61.0256 372.706 58.8462V38.1528C372.706 34.4923 373.351 31.5301 374.642 29.2661C375.954 27.0021 378.165 25.8701 381.275 25.8701C383.582 25.8701 385.348 26.3674 386.576 27.3618C387.824 28.3351 388.787 29.6999 389.464 31.4561V18.126H401.017V73.9854H389.464V68.939C388.829 70.6528 387.983 72.007 386.925 73.0015C385.888 73.9959 384.375 74.4932 382.386 74.4932ZM386.734 65.6064C387.813 65.6064 388.533 65.1727 388.893 64.3052C389.273 63.4377 389.464 61.8825 389.464 59.6396V39.6128C389.464 38.4914 389.295 37.3911 388.956 36.312C388.639 35.2118 387.919 34.6616 386.798 34.6616C385.571 34.6616 384.798 35.18 384.481 36.2168C384.164 37.2536 384.005 38.3856 384.005 39.6128V59.6396C384.005 63.6175 384.915 65.6064 386.734 65.6064Z" fill="#FFD666"/>
<path d="M27.457 74.4932C23.4157 74.4932 20.1572 73.2342 17.6816 70.7163C15.2272 68.1984 14 64.6755 14 60.1475V34.376C14 28.9593 15.0685 24.8122 17.2056 21.9346C19.3638 19.057 22.8656 17.6182 27.7109 17.6182C30.3558 17.6182 32.7044 18.1048 34.7568 19.0781C36.8304 20.0514 38.4596 21.5114 39.6445 23.458C40.8294 25.3835 41.4219 27.8167 41.4219 30.7578V40.4062H30.3135V32.1543C30.3135 30.4827 30.1019 29.3613 29.6787 28.79C29.2555 28.1976 28.5996 27.9014 27.7109 27.9014C26.6742 27.9014 25.9759 28.2822 25.6162 29.0439C25.2565 29.7845 25.0767 30.779 25.0767 32.0273V59.9888C25.0767 61.5334 25.2988 62.623 25.7432 63.2578C26.2087 63.8926 26.8646 64.21 27.7109 64.21C28.6631 64.21 29.3296 63.8185 29.7104 63.0356C30.1125 62.2528 30.3135 61.2371 30.3135 59.9888V49.9277H41.5488V60.4966C41.5488 65.4054 40.311 68.9707 37.8354 71.1924C35.3599 73.3929 31.9004 74.4932 27.457 74.4932Z" stroke="#FFD666" stroke-width="28" mask="url(#path-1-outside-1_0_15)"/>
<path d="M45.1035 73.9854V18.126H56.7832V31.1069C57.3968 29.3296 58.3384 28.0177 59.6079 27.1714C60.8774 26.3039 62.3586 25.8701 64.0513 25.8701C67.3521 25.8701 69.7536 26.9069 71.2559 28.9805C72.7581 31.054 73.5093 33.8364 73.5093 37.3276V73.9854H62.02V38.0576C62.02 37.0208 61.7979 36.1745 61.3535 35.5186C60.9303 34.8626 60.2533 34.5347 59.3223 34.5347C58.5394 34.5347 57.9152 34.8732 57.4497 35.5503C57.0054 36.2274 56.7832 37.0314 56.7832 37.9624V73.9854H45.1035Z" stroke="#FFD666" stroke-width="28" mask="url(#path-1-outside-1_0_15)"/>
<path d="M86.6489 74.4932C84.0041 74.4932 81.9834 73.8796 80.5869 72.6523C79.2116 71.4251 78.27 69.743 77.7622 67.606C77.2544 65.4689 77.0005 63.0462 77.0005 60.3379C77.0005 57.4391 77.2861 55.0693 77.8574 53.2285C78.4287 51.3665 79.402 49.8431 80.7773 48.6582C82.1738 47.4733 84.0887 46.4683 86.522 45.6431L93.5679 43.231V38.3433C93.5679 35.783 92.7321 34.5029 91.0605 34.5029C89.5371 34.5029 88.7754 35.5397 88.7754 37.6133V40.4697H77.7305C77.7093 40.3005 77.6987 40.0889 77.6987 39.835C77.6987 39.5599 77.6987 39.2531 77.6987 38.9146C77.6987 34.175 78.8096 30.8213 81.0312 28.8535C83.2741 26.8646 86.8182 25.8701 91.6636 25.8701C94.2026 25.8701 96.4772 26.325 98.4873 27.2349C100.497 28.1235 102.084 29.446 103.248 31.2021C104.433 32.9583 105.025 35.1271 105.025 37.7085V73.9854H93.7266V68.3359C93.1764 70.3249 92.2666 71.8483 90.9971 72.9062C89.7275 73.9642 88.2782 74.4932 86.6489 74.4932ZM91.124 65.6699C92.055 65.6699 92.6898 65.2785 93.0283 64.4956C93.3669 63.7127 93.5361 62.8664 93.5361 61.9565V48.6899C91.9704 49.3247 90.7537 50.1287 89.8862 51.1021C89.0187 52.0542 88.585 53.4613 88.585 55.3232V61.4487C88.585 64.2629 89.4313 65.6699 91.124 65.6699Z" stroke="#FFD666" stroke-width="28" mask="url(#path-1-outside-1_0_15)"/>
<path d="M109.342 23.458V14H120.704V23.458H109.342ZM109.342 73.9854V26.3779H120.704V73.9854H109.342Z" stroke="#FFD666" stroke-width="28" mask="url(#path-1-outside-1_0_15)"/>
<path d="M125.211 73.9854V26.3779H136.573V32.4399C136.996 30.6203 137.779 29.0757 138.922 27.8062C140.086 26.5155 141.694 25.8701 143.746 25.8701C147.047 25.8701 149.438 26.8857 150.919 28.917C152.421 30.9482 153.172 33.7306 153.172 37.2642V73.9854H141.969V38.4385C141.969 37.5075 141.778 36.6506 141.397 35.8677C141.017 35.0636 140.361 34.6616 139.43 34.6616C138.562 34.6616 137.917 34.9684 137.494 35.582C137.092 36.1745 136.838 36.9256 136.732 37.8354C136.626 38.7241 136.573 39.6128 136.573 40.5015V73.9854H125.211Z" stroke="#FFD666" stroke-width="28" mask="url(#path-1-outside-1_0_15)"/>
<path d="M157.33 73.9854V18.126H168.121V73.9854H157.33Z" stroke="#FFD666" stroke-width="28" mask="url(#path-1-outside-1_0_15)"/>
<path d="M172.564 73.9854V18.126H187.926C191.946 18.126 194.972 19.2474 197.003 21.4902C199.034 23.7119 200.05 26.9704 200.05 31.2656V57.418C200.05 62.7077 199.119 66.7913 197.257 69.6689C195.416 72.5466 192.179 73.9854 187.545 73.9854H172.564ZM183.8 64.1147H185.736C187.788 64.1147 188.814 63.1203 188.814 61.1313V32.313C188.814 30.451 188.561 29.2555 188.053 28.7266C187.566 28.1764 186.561 27.9014 185.038 27.9014H183.8V64.1147Z" stroke="#FFD666" stroke-width="28" mask="url(#path-1-outside-1_0_15)"/>
<path d="M204.62 73.9854V18.126H226.964V28.917H215.982V39.8032H226.52V50.3086H215.982V63.0991H227.694V73.9854H204.62Z" stroke="#FFD666" stroke-width="28" mask="url(#path-1-outside-1_0_15)"/>
<path d="M259.908 74.4932C254.809 74.4932 251.127 73.2236 248.863 70.6846C246.62 68.1455 245.499 64.1042 245.499 58.5605V53.1016H256.544V60.084C256.544 61.3747 256.734 62.3903 257.115 63.1309C257.517 63.8503 258.205 64.21 259.178 64.21C260.194 64.21 260.892 63.9137 261.273 63.3213C261.675 62.7288 261.876 61.7555 261.876 60.4014C261.876 58.6875 261.707 57.2593 261.368 56.1167C261.03 54.953 260.437 53.8527 259.591 52.8159C258.766 51.758 257.612 50.5308 256.131 49.1343L251.117 44.3735C247.372 40.84 245.499 36.7987 245.499 32.2495C245.499 27.4888 246.599 23.86 248.8 21.3633C251.021 18.8665 254.227 17.6182 258.417 17.6182C263.537 17.6182 267.166 18.9829 269.303 21.7124C271.461 24.4419 272.54 28.589 272.54 34.1538H261.178V30.3135C261.178 29.5518 260.956 28.9593 260.511 28.5361C260.088 28.113 259.506 27.9014 258.766 27.9014C257.877 27.9014 257.221 28.1553 256.798 28.6631C256.396 29.1497 256.195 29.7845 256.195 30.5674C256.195 31.3503 256.406 32.1966 256.83 33.1064C257.253 34.0163 258.089 35.0636 259.337 36.2485L265.78 42.4375C267.07 43.6647 268.255 44.966 269.334 46.3413C270.414 47.6955 271.281 49.2824 271.937 51.1021C272.593 52.9006 272.921 55.1011 272.921 57.7036C272.921 62.951 271.948 67.0664 270.001 70.0498C268.076 73.012 264.711 74.4932 259.908 74.4932Z" stroke="#FFD666" stroke-width="28" mask="url(#path-1-outside-1_0_15)"/>
<path d="M276.476 73.9854V18.126H288.155V31.1069C288.769 29.3296 289.71 28.0177 290.98 27.1714C292.25 26.3039 293.731 25.8701 295.423 25.8701C298.724 25.8701 301.126 26.9069 302.628 28.9805C304.13 31.054 304.881 33.8364 304.881 37.3276V73.9854H293.392V38.0576C293.392 37.0208 293.17 36.1745 292.726 35.5186C292.302 34.8626 291.625 34.5347 290.694 34.5347C289.911 34.5347 289.287 34.8732 288.822 35.5503C288.377 36.2274 288.155 37.0314 288.155 37.9624V73.9854H276.476Z" stroke="#FFD666" stroke-width="28" mask="url(#path-1-outside-1_0_15)"/>
<path d="M309.293 23.458V14H320.655V23.458H309.293ZM309.293 73.9854V26.3779H320.655V73.9854H309.293Z" stroke="#FFD666" stroke-width="28" mask="url(#path-1-outside-1_0_15)"/>
<path d="M338.492 74.4932C335.107 74.4932 332.409 73.8584 330.399 72.5889C328.389 71.3193 326.95 69.4891 326.083 67.0981C325.215 64.7072 324.781 61.8296 324.781 58.4653V39.3271C324.781 34.9049 326.051 31.5618 328.59 29.2979C331.129 27.0127 334.62 25.8701 339.063 25.8701C348.204 25.8701 352.774 30.3558 352.774 39.3271V42.7866C352.774 46.9761 352.732 49.7902 352.647 51.229H336.144V60.4331C336.144 61.2795 336.196 62.1152 336.302 62.9404C336.408 63.7445 336.641 64.411 337 64.9399C337.381 65.4689 337.984 65.7334 338.81 65.7334C339.994 65.7334 340.735 65.2256 341.031 64.21C341.327 63.1732 341.476 61.8296 341.476 60.1792V55.6089H352.774V58.3066C352.774 61.8613 352.33 64.8447 351.441 67.2568C350.574 69.6478 349.093 71.4569 346.998 72.6841C344.924 73.8901 342.089 74.4932 338.492 74.4932ZM336.08 45.5796H341.476V39.1685C341.476 37.4546 341.264 36.2274 340.841 35.4868C340.418 34.7251 339.783 34.3442 338.937 34.3442C338.027 34.3442 337.318 34.7039 336.81 35.4233C336.323 36.1427 336.08 37.3911 336.08 39.1685V45.5796Z" stroke="#FFD666" stroke-width="28" mask="url(#path-1-outside-1_0_15)"/>
<path d="M356.9 73.9854V18.126H368.453V73.9854H356.9Z" stroke="#FFD666" stroke-width="28" mask="url(#path-1-outside-1_0_15)"/>
<path d="M382.386 74.4932C380.186 74.4932 378.44 74.0911 377.149 73.2871C375.859 72.4831 374.896 71.3722 374.261 69.9546C373.626 68.5369 373.203 66.876 372.992 64.9717C372.801 63.0674 372.706 61.0256 372.706 58.8462V38.1528C372.706 34.4923 373.351 31.5301 374.642 29.2661C375.954 27.0021 378.165 25.8701 381.275 25.8701C383.582 25.8701 385.348 26.3674 386.576 27.3618C387.824 28.3351 388.787 29.6999 389.464 31.4561V18.126H401.017V73.9854H389.464V68.939C388.829 70.6528 387.983 72.007 386.925 73.0015C385.888 73.9959 384.375 74.4932 382.386 74.4932ZM386.734 65.6064C387.813 65.6064 388.533 65.1727 388.893 64.3052C389.273 63.4377 389.464 61.8825 389.464 59.6396V39.6128C389.464 38.4914 389.295 37.3911 388.956 36.312C388.639 35.2118 387.919 34.6616 386.798 34.6616C385.571 34.6616 384.798 35.18 384.481 36.2168C384.164 37.2536 384.005 38.3856 384.005 39.6128V59.6396C384.005 63.6175 384.915 65.6064 386.734 65.6064Z" stroke="#FFD666" stroke-width="28" mask="url(#path-1-outside-1_0_15)"/>
<mask id="path-2-outside-2_0_15" maskUnits="userSpaceOnUse" x="7" y="7" width="402" height="75" fill="black">
<rect fill="white" x="7" y="7" width="402" height="75"/>
<path d="M27.457 74.4932C23.4157 74.4932 20.1572 73.2342 17.6816 70.7163C15.2272 68.1984 14 64.6755 14 60.1475V34.376C14 28.9593 15.0685 24.8122 17.2056 21.9346C19.3638 19.057 22.8656 17.6182 27.7109 17.6182C30.3558 17.6182 32.7044 18.1048 34.7568 19.0781C36.8304 20.0514 38.4596 21.5114 39.6445 23.458C40.8294 25.3835 41.4219 27.8167 41.4219 30.7578V40.4062H30.3135V32.1543C30.3135 30.4827 30.1019 29.3613 29.6787 28.79C29.2555 28.1976 28.5996 27.9014 27.7109 27.9014C26.6742 27.9014 25.9759 28.2822 25.6162 29.0439C25.2565 29.7845 25.0767 30.779 25.0767 32.0273V59.9888C25.0767 61.5334 25.2988 62.623 25.7432 63.2578C26.2087 63.8926 26.8646 64.21 27.7109 64.21C28.6631 64.21 29.3296 63.8185 29.7104 63.0356C30.1125 62.2528 30.3135 61.2371 30.3135 59.9888V49.9277H41.5488V60.4966C41.5488 65.4054 40.311 68.9707 37.8354 71.1924C35.3599 73.3929 31.9004 74.4932 27.457 74.4932Z"/>
<path d="M45.1035 73.9854V18.126H56.7832V31.1069C57.3968 29.3296 58.3384 28.0177 59.6079 27.1714C60.8774 26.3039 62.3586 25.8701 64.0513 25.8701C67.3521 25.8701 69.7536 26.9069 71.2559 28.9805C72.7581 31.054 73.5093 33.8364 73.5093 37.3276V73.9854H62.02V38.0576C62.02 37.0208 61.7979 36.1745 61.3535 35.5186C60.9303 34.8626 60.2533 34.5347 59.3223 34.5347C58.5394 34.5347 57.9152 34.8732 57.4497 35.5503C57.0054 36.2274 56.7832 37.0314 56.7832 37.9624V73.9854H45.1035Z"/>
<path d="M86.6489 74.4932C84.0041 74.4932 81.9834 73.8796 80.5869 72.6523C79.2116 71.4251 78.27 69.743 77.7622 67.606C77.2544 65.4689 77.0005 63.0462 77.0005 60.3379C77.0005 57.4391 77.2861 55.0693 77.8574 53.2285C78.4287 51.3665 79.402 49.8431 80.7773 48.6582C82.1738 47.4733 84.0887 46.4683 86.522 45.6431L93.5679 43.231V38.3433C93.5679 35.783 92.7321 34.5029 91.0605 34.5029C89.5371 34.5029 88.7754 35.5397 88.7754 37.6133V40.4697H77.7305C77.7093 40.3005 77.6987 40.0889 77.6987 39.835C77.6987 39.5599 77.6987 39.2531 77.6987 38.9146C77.6987 34.175 78.8096 30.8213 81.0312 28.8535C83.2741 26.8646 86.8182 25.8701 91.6636 25.8701C94.2026 25.8701 96.4772 26.325 98.4873 27.2349C100.497 28.1235 102.084 29.446 103.248 31.2021C104.433 32.9583 105.025 35.1271 105.025 37.7085V73.9854H93.7266V68.3359C93.1764 70.3249 92.2666 71.8483 90.9971 72.9062C89.7275 73.9642 88.2782 74.4932 86.6489 74.4932ZM91.124 65.6699C92.055 65.6699 92.6898 65.2785 93.0283 64.4956C93.3669 63.7127 93.5361 62.8664 93.5361 61.9565V48.6899C91.9704 49.3247 90.7537 50.1287 89.8862 51.1021C89.0187 52.0542 88.585 53.4613 88.585 55.3232V61.4487C88.585 64.2629 89.4313 65.6699 91.124 65.6699Z"/>
<path d="M109.342 23.458V14H120.704V23.458H109.342ZM109.342 73.9854V26.3779H120.704V73.9854H109.342Z"/>
<path d="M125.211 73.9854V26.3779H136.573V32.4399C136.996 30.6203 137.779 29.0757 138.922 27.8062C140.086 26.5155 141.694 25.8701 143.746 25.8701C147.047 25.8701 149.438 26.8857 150.919 28.917C152.421 30.9482 153.172 33.7306 153.172 37.2642V73.9854H141.969V38.4385C141.969 37.5075 141.778 36.6506 141.397 35.8677C141.017 35.0636 140.361 34.6616 139.43 34.6616C138.562 34.6616 137.917 34.9684 137.494 35.582C137.092 36.1745 136.838 36.9256 136.732 37.8354C136.626 38.7241 136.573 39.6128 136.573 40.5015V73.9854H125.211Z"/>
<path d="M157.33 73.9854V18.126H168.121V73.9854H157.33Z"/>
<path d="M172.564 73.9854V18.126H187.926C191.946 18.126 194.972 19.2474 197.003 21.4902C199.034 23.7119 200.05 26.9704 200.05 31.2656V57.418C200.05 62.7077 199.119 66.7913 197.257 69.6689C195.416 72.5466 192.179 73.9854 187.545 73.9854H172.564ZM183.8 64.1147H185.736C187.788 64.1147 188.814 63.1203 188.814 61.1313V32.313C188.814 30.451 188.561 29.2555 188.053 28.7266C187.566 28.1764 186.561 27.9014 185.038 27.9014H183.8V64.1147Z"/>
<path d="M204.62 73.9854V18.126H226.964V28.917H215.982V39.8032H226.52V50.3086H215.982V63.0991H227.694V73.9854H204.62Z"/>
<path d="M259.908 74.4932C254.809 74.4932 251.127 73.2236 248.863 70.6846C246.62 68.1455 245.499 64.1042 245.499 58.5605V53.1016H256.544V60.084C256.544 61.3747 256.734 62.3903 257.115 63.1309C257.517 63.8503 258.205 64.21 259.178 64.21C260.194 64.21 260.892 63.9137 261.273 63.3213C261.675 62.7288 261.876 61.7555 261.876 60.4014C261.876 58.6875 261.707 57.2593 261.368 56.1167C261.03 54.953 260.437 53.8527 259.591 52.8159C258.766 51.758 257.612 50.5308 256.131 49.1343L251.117 44.3735C247.372 40.84 245.499 36.7987 245.499 32.2495C245.499 27.4888 246.599 23.86 248.8 21.3633C251.021 18.8665 254.227 17.6182 258.417 17.6182C263.537 17.6182 267.166 18.9829 269.303 21.7124C271.461 24.4419 272.54 28.589 272.54 34.1538H261.178V30.3135C261.178 29.5518 260.956 28.9593 260.511 28.5361C260.088 28.113 259.506 27.9014 258.766 27.9014C257.877 27.9014 257.221 28.1553 256.798 28.6631C256.396 29.1497 256.195 29.7845 256.195 30.5674C256.195 31.3503 256.406 32.1966 256.83 33.1064C257.253 34.0163 258.089 35.0636 259.337 36.2485L265.78 42.4375C267.07 43.6647 268.255 44.966 269.334 46.3413C270.414 47.6955 271.281 49.2824 271.937 51.1021C272.593 52.9006 272.921 55.1011 272.921 57.7036C272.921 62.951 271.948 67.0664 270.001 70.0498C268.076 73.012 264.711 74.4932 259.908 74.4932Z"/>
<path d="M276.476 73.9854V18.126H288.155V31.1069C288.769 29.3296 289.71 28.0177 290.98 27.1714C292.25 26.3039 293.731 25.8701 295.423 25.8701C298.724 25.8701 301.126 26.9069 302.628 28.9805C304.13 31.054 304.881 33.8364 304.881 37.3276V73.9854H293.392V38.0576C293.392 37.0208 293.17 36.1745 292.726 35.5186C292.302 34.8626 291.625 34.5347 290.694 34.5347C289.911 34.5347 289.287 34.8732 288.822 35.5503C288.377 36.2274 288.155 37.0314 288.155 37.9624V73.9854H276.476Z"/>
<path d="M309.293 23.458V14H320.655V23.458H309.293ZM309.293 73.9854V26.3779H320.655V73.9854H309.293Z"/>
<path d="M338.492 74.4932C335.107 74.4932 332.409 73.8584 330.399 72.5889C328.389 71.3193 326.95 69.4891 326.083 67.0981C325.215 64.7072 324.781 61.8296 324.781 58.4653V39.3271C324.781 34.9049 326.051 31.5618 328.59 29.2979C331.129 27.0127 334.62 25.8701 339.063 25.8701C348.204 25.8701 352.774 30.3558 352.774 39.3271V42.7866C352.774 46.9761 352.732 49.7902 352.647 51.229H336.144V60.4331C336.144 61.2795 336.196 62.1152 336.302 62.9404C336.408 63.7445 336.641 64.411 337 64.9399C337.381 65.4689 337.984 65.7334 338.81 65.7334C339.994 65.7334 340.735 65.2256 341.031 64.21C341.327 63.1732 341.476 61.8296 341.476 60.1792V55.6089H352.774V58.3066C352.774 61.8613 352.33 64.8447 351.441 67.2568C350.574 69.6478 349.093 71.4569 346.998 72.6841C344.924 73.8901 342.089 74.4932 338.492 74.4932ZM336.08 45.5796H341.476V39.1685C341.476 37.4546 341.264 36.2274 340.841 35.4868C340.418 34.7251 339.783 34.3442 338.937 34.3442C338.027 34.3442 337.318 34.7039 336.81 35.4233C336.323 36.1427 336.08 37.3911 336.08 39.1685V45.5796Z"/>
<path d="M356.9 73.9854V18.126H368.453V73.9854H356.9Z"/>
<path d="M382.386 74.4932C380.186 74.4932 378.44 74.0911 377.149 73.2871C375.859 72.4831 374.896 71.3722 374.261 69.9546C373.626 68.5369 373.203 66.876 372.992 64.9717C372.801 63.0674 372.706 61.0256 372.706 58.8462V38.1528C372.706 34.4923 373.351 31.5301 374.642 29.2661C375.954 27.0021 378.165 25.8701 381.275 25.8701C383.582 25.8701 385.348 26.3674 386.576 27.3618C387.824 28.3351 388.787 29.6999 389.464 31.4561V18.126H401.017V73.9854H389.464V68.939C388.829 70.6528 387.983 72.007 386.925 73.0015C385.888 73.9959 384.375 74.4932 382.386 74.4932ZM386.734 65.6064C387.813 65.6064 388.533 65.1727 388.893 64.3052C389.273 63.4377 389.464 61.8825 389.464 59.6396V39.6128C389.464 38.4914 389.295 37.3911 388.956 36.312C388.639 35.2118 387.919 34.6616 386.798 34.6616C385.571 34.6616 384.798 35.18 384.481 36.2168C384.164 37.2536 384.005 38.3856 384.005 39.6128V59.6396C384.005 63.6175 384.915 65.6064 386.734 65.6064Z"/>
</mask>
<path d="M27.457 74.4932C23.4157 74.4932 20.1572 73.2342 17.6816 70.7163C15.2272 68.1984 14 64.6755 14 60.1475V34.376C14 28.9593 15.0685 24.8122 17.2056 21.9346C19.3638 19.057 22.8656 17.6182 27.7109 17.6182C30.3558 17.6182 32.7044 18.1048 34.7568 19.0781C36.8304 20.0514 38.4596 21.5114 39.6445 23.458C40.8294 25.3835 41.4219 27.8167 41.4219 30.7578V40.4062H30.3135V32.1543C30.3135 30.4827 30.1019 29.3613 29.6787 28.79C29.2555 28.1976 28.5996 27.9014 27.7109 27.9014C26.6742 27.9014 25.9759 28.2822 25.6162 29.0439C25.2565 29.7845 25.0767 30.779 25.0767 32.0273V59.9888C25.0767 61.5334 25.2988 62.623 25.7432 63.2578C26.2087 63.8926 26.8646 64.21 27.7109 64.21C28.6631 64.21 29.3296 63.8185 29.7104 63.0356C30.1125 62.2528 30.3135 61.2371 30.3135 59.9888V49.9277H41.5488V60.4966C41.5488 65.4054 40.311 68.9707 37.8354 71.1924C35.3599 73.3929 31.9004 74.4932 27.457 74.4932Z" fill="black"/>
<path d="M45.1035 73.9854V18.126H56.7832V31.1069C57.3968 29.3296 58.3384 28.0177 59.6079 27.1714C60.8774 26.3039 62.3586 25.8701 64.0513 25.8701C67.3521 25.8701 69.7536 26.9069 71.2559 28.9805C72.7581 31.054 73.5093 33.8364 73.5093 37.3276V73.9854H62.02V38.0576C62.02 37.0208 61.7979 36.1745 61.3535 35.5186C60.9303 34.8626 60.2533 34.5347 59.3223 34.5347C58.5394 34.5347 57.9152 34.8732 57.4497 35.5503C57.0054 36.2274 56.7832 37.0314 56.7832 37.9624V73.9854H45.1035Z" fill="black"/>
<path d="M86.6489 74.4932C84.0041 74.4932 81.9834 73.8796 80.5869 72.6523C79.2116 71.4251 78.27 69.743 77.7622 67.606C77.2544 65.4689 77.0005 63.0462 77.0005 60.3379C77.0005 57.4391 77.2861 55.0693 77.8574 53.2285C78.4287 51.3665 79.402 49.8431 80.7773 48.6582C82.1738 47.4733 84.0887 46.4683 86.522 45.6431L93.5679 43.231V38.3433C93.5679 35.783 92.7321 34.5029 91.0605 34.5029C89.5371 34.5029 88.7754 35.5397 88.7754 37.6133V40.4697H77.7305C77.7093 40.3005 77.6987 40.0889 77.6987 39.835C77.6987 39.5599 77.6987 39.2531 77.6987 38.9146C77.6987 34.175 78.8096 30.8213 81.0312 28.8535C83.2741 26.8646 86.8182 25.8701 91.6636 25.8701C94.2026 25.8701 96.4772 26.325 98.4873 27.2349C100.497 28.1235 102.084 29.446 103.248 31.2021C104.433 32.9583 105.025 35.1271 105.025 37.7085V73.9854H93.7266V68.3359C93.1764 70.3249 92.2666 71.8483 90.9971 72.9062C89.7275 73.9642 88.2782 74.4932 86.6489 74.4932ZM91.124 65.6699C92.055 65.6699 92.6898 65.2785 93.0283 64.4956C93.3669 63.7127 93.5361 62.8664 93.5361 61.9565V48.6899C91.9704 49.3247 90.7537 50.1287 89.8862 51.1021C89.0187 52.0542 88.585 53.4613 88.585 55.3232V61.4487C88.585 64.2629 89.4313 65.6699 91.124 65.6699Z" fill="black"/>
<path d="M109.342 23.458V14H120.704V23.458H109.342ZM109.342 73.9854V26.3779H120.704V73.9854H109.342Z" fill="black"/>
<path d="M125.211 73.9854V26.3779H136.573V32.4399C136.996 30.6203 137.779 29.0757 138.922 27.8062C140.086 26.5155 141.694 25.8701 143.746 25.8701C147.047 25.8701 149.438 26.8857 150.919 28.917C152.421 30.9482 153.172 33.7306 153.172 37.2642V73.9854H141.969V38.4385C141.969 37.5075 141.778 36.6506 141.397 35.8677C141.017 35.0636 140.361 34.6616 139.43 34.6616C138.562 34.6616 137.917 34.9684 137.494 35.582C137.092 36.1745 136.838 36.9256 136.732 37.8354C136.626 38.7241 136.573 39.6128 136.573 40.5015V73.9854H125.211Z" fill="black"/>
<path d="M157.33 73.9854V18.126H168.121V73.9854H157.33Z" fill="black"/>
<path d="M172.564 73.9854V18.126H187.926C191.946 18.126 194.972 19.2474 197.003 21.4902C199.034 23.7119 200.05 26.9704 200.05 31.2656V57.418C200.05 62.7077 199.119 66.7913 197.257 69.6689C195.416 72.5466 192.179 73.9854 187.545 73.9854H172.564ZM183.8 64.1147H185.736C187.788 64.1147 188.814 63.1203 188.814 61.1313V32.313C188.814 30.451 188.561 29.2555 188.053 28.7266C187.566 28.1764 186.561 27.9014 185.038 27.9014H183.8V64.1147Z" fill="black"/>
<path d="M204.62 73.9854V18.126H226.964V28.917H215.982V39.8032H226.52V50.3086H215.982V63.0991H227.694V73.9854H204.62Z" fill="black"/>
<path d="M259.908 74.4932C254.809 74.4932 251.127 73.2236 248.863 70.6846C246.62 68.1455 245.499 64.1042 245.499 58.5605V53.1016H256.544V60.084C256.544 61.3747 256.734 62.3903 257.115 63.1309C257.517 63.8503 258.205 64.21 259.178 64.21C260.194 64.21 260.892 63.9137 261.273 63.3213C261.675 62.7288 261.876 61.7555 261.876 60.4014C261.876 58.6875 261.707 57.2593 261.368 56.1167C261.03 54.953 260.437 53.8527 259.591 52.8159C258.766 51.758 257.612 50.5308 256.131 49.1343L251.117 44.3735C247.372 40.84 245.499 36.7987 245.499 32.2495C245.499 27.4888 246.599 23.86 248.8 21.3633C251.021 18.8665 254.227 17.6182 258.417 17.6182C263.537 17.6182 267.166 18.9829 269.303 21.7124C271.461 24.4419 272.54 28.589 272.54 34.1538H261.178V30.3135C261.178 29.5518 260.956 28.9593 260.511 28.5361C260.088 28.113 259.506 27.9014 258.766 27.9014C257.877 27.9014 257.221 28.1553 256.798 28.6631C256.396 29.1497 256.195 29.7845 256.195 30.5674C256.195 31.3503 256.406 32.1966 256.83 33.1064C257.253 34.0163 258.089 35.0636 259.337 36.2485L265.78 42.4375C267.07 43.6647 268.255 44.966 269.334 46.3413C270.414 47.6955 271.281 49.2824 271.937 51.1021C272.593 52.9006 272.921 55.1011 272.921 57.7036C272.921 62.951 271.948 67.0664 270.001 70.0498C268.076 73.012 264.711 74.4932 259.908 74.4932Z" fill="black"/>
<path d="M276.476 73.9854V18.126H288.155V31.1069C288.769 29.3296 289.71 28.0177 290.98 27.1714C292.25 26.3039 293.731 25.8701 295.423 25.8701C298.724 25.8701 301.126 26.9069 302.628 28.9805C304.13 31.054 304.881 33.8364 304.881 37.3276V73.9854H293.392V38.0576C293.392 37.0208 293.17 36.1745 292.726 35.5186C292.302 34.8626 291.625 34.5347 290.694 34.5347C289.911 34.5347 289.287 34.8732 288.822 35.5503C288.377 36.2274 288.155 37.0314 288.155 37.9624V73.9854H276.476Z" fill="black"/>
<path d="M309.293 23.458V14H320.655V23.458H309.293ZM309.293 73.9854V26.3779H320.655V73.9854H309.293Z" fill="black"/>
<path d="M338.492 74.4932C335.107 74.4932 332.409 73.8584 330.399 72.5889C328.389 71.3193 326.95 69.4891 326.083 67.0981C325.215 64.7072 324.781 61.8296 324.781 58.4653V39.3271C324.781 34.9049 326.051 31.5618 328.59 29.2979C331.129 27.0127 334.62 25.8701 339.063 25.8701C348.204 25.8701 352.774 30.3558 352.774 39.3271V42.7866C352.774 46.9761 352.732 49.7902 352.647 51.229H336.144V60.4331C336.144 61.2795 336.196 62.1152 336.302 62.9404C336.408 63.7445 336.641 64.411 337 64.9399C337.381 65.4689 337.984 65.7334 338.81 65.7334C339.994 65.7334 340.735 65.2256 341.031 64.21C341.327 63.1732 341.476 61.8296 341.476 60.1792V55.6089H352.774V58.3066C352.774 61.8613 352.33 64.8447 351.441 67.2568C350.574 69.6478 349.093 71.4569 346.998 72.6841C344.924 73.8901 342.089 74.4932 338.492 74.4932ZM336.08 45.5796H341.476V39.1685C341.476 37.4546 341.264 36.2274 340.841 35.4868C340.418 34.7251 339.783 34.3442 338.937 34.3442C338.027 34.3442 337.318 34.7039 336.81 35.4233C336.323 36.1427 336.08 37.3911 336.08 39.1685V45.5796Z" fill="black"/>
<path d="M356.9 73.9854V18.126H368.453V73.9854H356.9Z" fill="black"/>
<path d="M382.386 74.4932C380.186 74.4932 378.44 74.0911 377.149 73.2871C375.859 72.4831 374.896 71.3722 374.261 69.9546C373.626 68.5369 373.203 66.876 372.992 64.9717C372.801 63.0674 372.706 61.0256 372.706 58.8462V38.1528C372.706 34.4923 373.351 31.5301 374.642 29.2661C375.954 27.0021 378.165 25.8701 381.275 25.8701C383.582 25.8701 385.348 26.3674 386.576 27.3618C387.824 28.3351 388.787 29.6999 389.464 31.4561V18.126H401.017V73.9854H389.464V68.939C388.829 70.6528 387.983 72.007 386.925 73.0015C385.888 73.9959 384.375 74.4932 382.386 74.4932ZM386.734 65.6064C387.813 65.6064 388.533 65.1727 388.893 64.3052C389.273 63.4377 389.464 61.8825 389.464 59.6396V39.6128C389.464 38.4914 389.295 37.3911 388.956 36.312C388.639 35.2118 387.919 34.6616 386.798 34.6616C385.571 34.6616 384.798 35.18 384.481 36.2168C384.164 37.2536 384.005 38.3856 384.005 39.6128V59.6396C384.005 63.6175 384.915 65.6064 386.734 65.6064Z" fill="black"/>
<path d="M27.457 74.4932C23.4157 74.4932 20.1572 73.2342 17.6816 70.7163C15.2272 68.1984 14 64.6755 14 60.1475V34.376C14 28.9593 15.0685 24.8122 17.2056 21.9346C19.3638 19.057 22.8656 17.6182 27.7109 17.6182C30.3558 17.6182 32.7044 18.1048 34.7568 19.0781C36.8304 20.0514 38.4596 21.5114 39.6445 23.458C40.8294 25.3835 41.4219 27.8167 41.4219 30.7578V40.4062H30.3135V32.1543C30.3135 30.4827 30.1019 29.3613 29.6787 28.79C29.2555 28.1976 28.5996 27.9014 27.7109 27.9014C26.6742 27.9014 25.9759 28.2822 25.6162 29.0439C25.2565 29.7845 25.0767 30.779 25.0767 32.0273V59.9888C25.0767 61.5334 25.2988 62.623 25.7432 63.2578C26.2087 63.8926 26.8646 64.21 27.7109 64.21C28.6631 64.21 29.3296 63.8185 29.7104 63.0356C30.1125 62.2528 30.3135 61.2371 30.3135 59.9888V49.9277H41.5488V60.4966C41.5488 65.4054 40.311 68.9707 37.8354 71.1924C35.3599 73.3929 31.9004 74.4932 27.457 74.4932Z" stroke="black" stroke-width="14" mask="url(#path-2-outside-2_0_15)"/>
<path d="M45.1035 73.9854V18.126H56.7832V31.1069C57.3968 29.3296 58.3384 28.0177 59.6079 27.1714C60.8774 26.3039 62.3586 25.8701 64.0513 25.8701C67.3521 25.8701 69.7536 26.9069 71.2559 28.9805C72.7581 31.054 73.5093 33.8364 73.5093 37.3276V73.9854H62.02V38.0576C62.02 37.0208 61.7979 36.1745 61.3535 35.5186C60.9303 34.8626 60.2533 34.5347 59.3223 34.5347C58.5394 34.5347 57.9152 34.8732 57.4497 35.5503C57.0054 36.2274 56.7832 37.0314 56.7832 37.9624V73.9854H45.1035Z" stroke="black" stroke-width="14" mask="url(#path-2-outside-2_0_15)"/>
<path d="M86.6489 74.4932C84.0041 74.4932 81.9834 73.8796 80.5869 72.6523C79.2116 71.4251 78.27 69.743 77.7622 67.606C77.2544 65.4689 77.0005 63.0462 77.0005 60.3379C77.0005 57.4391 77.2861 55.0693 77.8574 53.2285C78.4287 51.3665 79.402 49.8431 80.7773 48.6582C82.1738 47.4733 84.0887 46.4683 86.522 45.6431L93.5679 43.231V38.3433C93.5679 35.783 92.7321 34.5029 91.0605 34.5029C89.5371 34.5029 88.7754 35.5397 88.7754 37.6133V40.4697H77.7305C77.7093 40.3005 77.6987 40.0889 77.6987 39.835C77.6987 39.5599 77.6987 39.2531 77.6987 38.9146C77.6987 34.175 78.8096 30.8213 81.0312 28.8535C83.2741 26.8646 86.8182 25.8701 91.6636 25.8701C94.2026 25.8701 96.4772 26.325 98.4873 27.2349C100.497 28.1235 102.084 29.446 103.248 31.2021C104.433 32.9583 105.025 35.1271 105.025 37.7085V73.9854H93.7266V68.3359C93.1764 70.3249 92.2666 71.8483 90.9971 72.9062C89.7275 73.9642 88.2782 74.4932 86.6489 74.4932ZM91.124 65.6699C92.055 65.6699 92.6898 65.2785 93.0283 64.4956C93.3669 63.7127 93.5361 62.8664 93.5361 61.9565V48.6899C91.9704 49.3247 90.7537 50.1287 89.8862 51.1021C89.0187 52.0542 88.585 53.4613 88.585 55.3232V61.4487C88.585 64.2629 89.4313 65.6699 91.124 65.6699Z" stroke="black" stroke-width="14" mask="url(#path-2-outside-2_0_15)"/>
<path d="M109.342 23.458V14H120.704V23.458H109.342ZM109.342 73.9854V26.3779H120.704V73.9854H109.342Z" stroke="black" stroke-width="14" mask="url(#path-2-outside-2_0_15)"/>
<path d="M125.211 73.9854V26.3779H136.573V32.4399C136.996 30.6203 137.779 29.0757 138.922 27.8062C140.086 26.5155 141.694 25.8701 143.746 25.8701C147.047 25.8701 149.438 26.8857 150.919 28.917C152.421 30.9482 153.172 33.7306 153.172 37.2642V73.9854H141.969V38.4385C141.969 37.5075 141.778 36.6506 141.397 35.8677C141.017 35.0636 140.361 34.6616 139.43 34.6616C138.562 34.6616 137.917 34.9684 137.494 35.582C137.092 36.1745 136.838 36.9256 136.732 37.8354C136.626 38.7241 136.573 39.6128 136.573 40.5015V73.9854H125.211Z" stroke="black" stroke-width="14" mask="url(#path-2-outside-2_0_15)"/>
<path d="M157.33 73.9854V18.126H168.121V73.9854H157.33Z" stroke="black" stroke-width="14" mask="url(#path-2-outside-2_0_15)"/>
<path d="M172.564 73.9854V18.126H187.926C191.946 18.126 194.972 19.2474 197.003 21.4902C199.034 23.7119 200.05 26.9704 200.05 31.2656V57.418C200.05 62.7077 199.119 66.7913 197.257 69.6689C195.416 72.5466 192.179 73.9854 187.545 73.9854H172.564ZM183.8 64.1147H185.736C187.788 64.1147 188.814 63.1203 188.814 61.1313V32.313C188.814 30.451 188.561 29.2555 188.053 28.7266C187.566 28.1764 186.561 27.9014 185.038 27.9014H183.8V64.1147Z" stroke="black" stroke-width="14" mask="url(#path-2-outside-2_0_15)"/>
<path d="M204.62 73.9854V18.126H226.964V28.917H215.982V39.8032H226.52V50.3086H215.982V63.0991H227.694V73.9854H204.62Z" stroke="black" stroke-width="14" mask="url(#path-2-outside-2_0_15)"/>
<path d="M259.908 74.4932C254.809 74.4932 251.127 73.2236 248.863 70.6846C246.62 68.1455 245.499 64.1042 245.499 58.5605V53.1016H256.544V60.084C256.544 61.3747 256.734 62.3903 257.115 63.1309C257.517 63.8503 258.205 64.21 259.178 64.21C260.194 64.21 260.892 63.9137 261.273 63.3213C261.675 62.7288 261.876 61.7555 261.876 60.4014C261.876 58.6875 261.707 57.2593 261.368 56.1167C261.03 54.953 260.437 53.8527 259.591 52.8159C258.766 51.758 257.612 50.5308 256.131 49.1343L251.117 44.3735C247.372 40.84 245.499 36.7987 245.499 32.2495C245.499 27.4888 246.599 23.86 248.8 21.3633C251.021 18.8665 254.227 17.6182 258.417 17.6182C263.537 17.6182 267.166 18.9829 269.303 21.7124C271.461 24.4419 272.54 28.589 272.54 34.1538H261.178V30.3135C261.178 29.5518 260.956 28.9593 260.511 28.5361C260.088 28.113 259.506 27.9014 258.766 27.9014C257.877 27.9014 257.221 28.1553 256.798 28.6631C256.396 29.1497 256.195 29.7845 256.195 30.5674C256.195 31.3503 256.406 32.1966 256.83 33.1064C257.253 34.0163 258.089 35.0636 259.337 36.2485L265.78 42.4375C267.07 43.6647 268.255 44.966 269.334 46.3413C270.414 47.6955 271.281 49.2824 271.937 51.1021C272.593 52.9006 272.921 55.1011 272.921 57.7036C272.921 62.951 271.948 67.0664 270.001 70.0498C268.076 73.012 264.711 74.4932 259.908 74.4932Z" stroke="black" stroke-width="14" mask="url(#path-2-outside-2_0_15)"/>
<path d="M276.476 73.9854V18.126H288.155V31.1069C288.769 29.3296 289.71 28.0177 290.98 27.1714C292.25 26.3039 293.731 25.8701 295.423 25.8701C298.724 25.8701 301.126 26.9069 302.628 28.9805C304.13 31.054 304.881 33.8364 304.881 37.3276V73.9854H293.392V38.0576C293.392 37.0208 293.17 36.1745 292.726 35.5186C292.302 34.8626 291.625 34.5347 290.694 34.5347C289.911 34.5347 289.287 34.8732 288.822 35.5503C288.377 36.2274 288.155 37.0314 288.155 37.9624V73.9854H276.476Z" stroke="black" stroke-width="14" mask="url(#path-2-outside-2_0_15)"/>
<path d="M309.293 23.458V14H320.655V23.458H309.293ZM309.293 73.9854V26.3779H320.655V73.9854H309.293Z" stroke="black" stroke-width="14" mask="url(#path-2-outside-2_0_15)"/>
<path d="M338.492 74.4932C335.107 74.4932 332.409 73.8584 330.399 72.5889C328.389 71.3193 326.95 69.4891 326.083 67.0981C325.215 64.7072 324.781 61.8296 324.781 58.4653V39.3271C324.781 34.9049 326.051 31.5618 328.59 29.2979C331.129 27.0127 334.62 25.8701 339.063 25.8701C348.204 25.8701 352.774 30.3558 352.774 39.3271V42.7866C352.774 46.9761 352.732 49.7902 352.647 51.229H336.144V60.4331C336.144 61.2795 336.196 62.1152 336.302 62.9404C336.408 63.7445 336.641 64.411 337 64.9399C337.381 65.4689 337.984 65.7334 338.81 65.7334C339.994 65.7334 340.735 65.2256 341.031 64.21C341.327 63.1732 341.476 61.8296 341.476 60.1792V55.6089H352.774V58.3066C352.774 61.8613 352.33 64.8447 351.441 67.2568C350.574 69.6478 349.093 71.4569 346.998 72.6841C344.924 73.8901 342.089 74.4932 338.492 74.4932ZM336.08 45.5796H341.476V39.1685C341.476 37.4546 341.264 36.2274 340.841 35.4868C340.418 34.7251 339.783 34.3442 338.937 34.3442C338.027 34.3442 337.318 34.7039 336.81 35.4233C336.323 36.1427 336.08 37.3911 336.08 39.1685V45.5796Z" stroke="black" stroke-width="14" mask="url(#path-2-outside-2_0_15)"/>
<path d="M356.9 73.9854V18.126H368.453V73.9854H356.9Z" stroke="black" stroke-width="14" mask="url(#path-2-outside-2_0_15)"/>
<path d="M382.386 74.4932C380.186 74.4932 378.44 74.0911 377.149 73.2871C375.859 72.4831 374.896 71.3722 374.261 69.9546C373.626 68.5369 373.203 66.876 372.992 64.9717C372.801 63.0674 372.706 61.0256 372.706 58.8462V38.1528C372.706 34.4923 373.351 31.5301 374.642 29.2661C375.954 27.0021 378.165 25.8701 381.275 25.8701C383.582 25.8701 385.348 26.3674 386.576 27.3618C387.824 28.3351 388.787 29.6999 389.464 31.4561V18.126H401.017V73.9854H389.464V68.939C388.829 70.6528 387.983 72.007 386.925 73.0015C385.888 73.9959 384.375 74.4932 382.386 74.4932ZM386.734 65.6064C387.813 65.6064 388.533 65.1727 388.893 64.3052C389.273 63.4377 389.464 61.8825 389.464 59.6396V39.6128C389.464 38.4914 389.295 37.3911 388.956 36.312C388.639 35.2118 387.919 34.6616 386.798 34.6616C385.571 34.6616 384.798 35.18 384.481 36.2168C384.164 37.2536 384.005 38.3856 384.005 39.6128V59.6396C384.005 63.6175 384.915 65.6064 386.734 65.6064Z" stroke="black" stroke-width="14" mask="url(#path-2-outside-2_0_15)"/>
<path d="M24.457 71.4932C20.4157 71.4932 17.1572 70.2342 14.6816 67.7163C12.2272 65.1984 11 61.6755 11 57.1475V31.376C11 25.9593 12.0685 21.8122 14.2056 18.9346C16.3638 16.057 19.8656 14.6182 24.7109 14.6182C27.3558 14.6182 29.7044 15.1048 31.7568 16.0781C33.8304 17.0514 35.4596 18.5114 36.6445 20.458C37.8294 22.3835 38.4219 24.8167 38.4219 27.7578V37.4062H27.3135V29.1543C27.3135 27.4827 27.1019 26.3613 26.6787 25.79C26.2555 25.1976 25.5996 24.9014 24.7109 24.9014C23.6742 24.9014 22.9759 25.2822 22.6162 26.0439C22.2565 26.7845 22.0767 27.779 22.0767 29.0273V56.9888C22.0767 58.5334 22.2988 59.623 22.7432 60.2578C23.2087 60.8926 23.8646 61.21 24.7109 61.21C25.6631 61.21 26.3296 60.8185 26.7104 60.0356C27.1125 59.2528 27.3135 58.2371 27.3135 56.9888V46.9277H38.5488V57.4966C38.5488 62.4054 37.311 65.9707 34.8354 68.1924C32.3599 70.3929 28.9004 71.4932 24.457 71.4932Z" fill="#E6E4D5"/>
<path d="M42.1035 70.9854V15.126H53.7832V28.1069C54.3968 26.3296 55.3384 25.0177 56.6079 24.1714C57.8774 23.3039 59.3586 22.8701 61.0513 22.8701C64.3521 22.8701 66.7536 23.9069 68.2559 25.9805C69.7581 28.054 70.5093 30.8364 70.5093 34.3276V70.9854H59.02V35.0576C59.02 34.0208 58.7979 33.1745 58.3535 32.5186C57.9303 31.8626 57.2533 31.5347 56.3223 31.5347C55.5394 31.5347 54.9152 31.8732 54.4497 32.5503C54.0054 33.2274 53.7832 34.0314 53.7832 34.9624V70.9854H42.1035Z" fill="#E6E4D5"/>
<path d="M83.6489 71.4932C81.0041 71.4932 78.9834 70.8796 77.5869 69.6523C76.2116 68.4251 75.27 66.743 74.7622 64.606C74.2544 62.4689 74.0005 60.0462 74.0005 57.3379C74.0005 54.4391 74.2861 52.0693 74.8574 50.2285C75.4287 48.3665 76.402 46.8431 77.7773 45.6582C79.1738 44.4733 81.0887 43.4683 83.522 42.6431L90.5679 40.231V35.3433C90.5679 32.783 89.7321 31.5029 88.0605 31.5029C86.5371 31.5029 85.7754 32.5397 85.7754 34.6133V37.4697H74.7305C74.7093 37.3005 74.6987 37.0889 74.6987 36.835C74.6987 36.5599 74.6987 36.2531 74.6987 35.9146C74.6987 31.175 75.8096 27.8213 78.0312 25.8535C80.2741 23.8646 83.8182 22.8701 88.6636 22.8701C91.2026 22.8701 93.4772 23.325 95.4873 24.2349C97.4974 25.1235 99.0843 26.446 100.248 28.2021C101.433 29.9583 102.025 32.1271 102.025 34.7085V70.9854H90.7266V65.3359C90.1764 67.3249 89.2666 68.8483 87.9971 69.9062C86.7275 70.9642 85.2782 71.4932 83.6489 71.4932ZM88.124 62.6699C89.055 62.6699 89.6898 62.2785 90.0283 61.4956C90.3669 60.7127 90.5361 59.8664 90.5361 58.9565V45.6899C88.9704 46.3247 87.7537 47.1287 86.8862 48.1021C86.0187 49.0542 85.585 50.4613 85.585 52.3232V58.4487C85.585 61.2629 86.4313 62.6699 88.124 62.6699Z" fill="#E6E4D5"/>
<path d="M106.342 20.458V11H117.704V20.458H106.342ZM106.342 70.9854V23.3779H117.704V70.9854H106.342Z" fill="#E6E4D5"/>
<path d="M122.211 70.9854V23.3779H133.573V29.4399C133.996 27.6203 134.779 26.0757 135.922 24.8062C137.086 23.5155 138.694 22.8701 140.746 22.8701C144.047 22.8701 146.438 23.8857 147.919 25.917C149.421 27.9482 150.172 30.7306 150.172 34.2642V70.9854H138.969V35.4385C138.969 34.5075 138.778 33.6506 138.397 32.8677C138.017 32.0636 137.361 31.6616 136.43 31.6616C135.562 31.6616 134.917 31.9684 134.494 32.582C134.092 33.1745 133.838 33.9256 133.732 34.8354C133.626 35.7241 133.573 36.6128 133.573 37.5015V70.9854H122.211Z" fill="#E6E4D5"/>
<path d="M154.33 70.9854V15.126H165.121V70.9854H154.33Z" fill="#E6E4D5"/>
<path d="M169.564 70.9854V15.126H184.926C188.946 15.126 191.972 16.2474 194.003 18.4902C196.034 20.7119 197.05 23.9704 197.05 28.2656V54.418C197.05 59.7077 196.119 63.7913 194.257 66.6689C192.416 69.5466 189.179 70.9854 184.545 70.9854H169.564ZM180.8 61.1147H182.736C184.788 61.1147 185.814 60.1203 185.814 58.1313V29.313C185.814 27.451 185.561 26.2555 185.053 25.7266C184.566 25.1764 183.561 24.9014 182.038 24.9014H180.8V61.1147Z" fill="#E6E4D5"/>
<path d="M201.62 70.9854V15.126H223.964V25.917H212.982V36.8032H223.52V47.3086H212.982V60.0991H224.694V70.9854H201.62Z" fill="#E6E4D5"/>
<path d="M256.908 71.4932C251.809 71.4932 248.127 70.2236 245.863 67.6846C243.62 65.1455 242.499 61.1042 242.499 55.5605V50.1016H253.544V57.084C253.544 58.3747 253.734 59.3903 254.115 60.1309C254.517 60.8503 255.205 61.21 256.178 61.21C257.194 61.21 257.892 60.9137 258.273 60.3213C258.675 59.7288 258.876 58.7555 258.876 57.4014C258.876 55.6875 258.707 54.2593 258.368 53.1167C258.03 51.953 257.437 50.8527 256.591 49.8159C255.766 48.758 254.612 47.5308 253.131 46.1343L248.117 41.3735C244.372 37.84 242.499 33.7987 242.499 29.2495C242.499 24.4888 243.599 20.86 245.8 18.3633C248.021 15.8665 251.227 14.6182 255.417 14.6182C260.537 14.6182 264.166 15.9829 266.303 18.7124C268.461 21.4419 269.54 25.589 269.54 31.1538H258.178V27.3135C258.178 26.5518 257.956 25.9593 257.511 25.5361C257.088 25.113 256.506 24.9014 255.766 24.9014C254.877 24.9014 254.221 25.1553 253.798 25.6631C253.396 26.1497 253.195 26.7845 253.195 27.5674C253.195 28.3503 253.406 29.1966 253.83 30.1064C254.253 31.0163 255.089 32.0636 256.337 33.2485L262.78 39.4375C264.07 40.6647 265.255 41.966 266.334 43.3413C267.414 44.6955 268.281 46.2824 268.937 48.1021C269.593 49.9006 269.921 52.1011 269.921 54.7036C269.921 59.951 268.948 64.0664 267.001 67.0498C265.076 70.012 261.711 71.4932 256.908 71.4932Z" fill="#E6E4D5"/>
<path d="M273.476 70.9854V15.126H285.155V28.1069C285.769 26.3296 286.71 25.0177 287.98 24.1714C289.25 23.3039 290.731 22.8701 292.423 22.8701C295.724 22.8701 298.126 23.9069 299.628 25.9805C301.13 28.054 301.881 30.8364 301.881 34.3276V70.9854H290.392V35.0576C290.392 34.0208 290.17 33.1745 289.726 32.5186C289.302 31.8626 288.625 31.5347 287.694 31.5347C286.911 31.5347 286.287 31.8732 285.822 32.5503C285.377 33.2274 285.155 34.0314 285.155 34.9624V70.9854H273.476Z" fill="#E6E4D5"/>
<path d="M306.293 20.458V11H317.655V20.458H306.293ZM306.293 70.9854V23.3779H317.655V70.9854H306.293Z" fill="#E6E4D5"/>
<path d="M335.492 71.4932C332.107 71.4932 329.409 70.8584 327.399 69.5889C325.389 68.3193 323.95 66.4891 323.083 64.0981C322.215 61.7072 321.781 58.8296 321.781 55.4653V36.3271C321.781 31.9049 323.051 28.5618 325.59 26.2979C328.129 24.0127 331.62 22.8701 336.063 22.8701C345.204 22.8701 349.774 27.3558 349.774 36.3271V39.7866C349.774 43.9761 349.732 46.7902 349.647 48.229H333.144V57.4331C333.144 58.2795 333.196 59.1152 333.302 59.9404C333.408 60.7445 333.641 61.411 334 61.9399C334.381 62.4689 334.984 62.7334 335.81 62.7334C336.994 62.7334 337.735 62.2256 338.031 61.21C338.327 60.1732 338.476 58.8296 338.476 57.1792V52.6089H349.774V55.3066C349.774 58.8613 349.33 61.8447 348.441 64.2568C347.574 66.6478 346.093 68.4569 343.998 69.6841C341.924 70.8901 339.089 71.4932 335.492 71.4932ZM333.08 42.5796H338.476V36.1685C338.476 34.4546 338.264 33.2274 337.841 32.4868C337.418 31.7251 336.783 31.3442 335.937 31.3442C335.027 31.3442 334.318 31.7039 333.81 32.4233C333.323 33.1427 333.08 34.3911 333.08 36.1685V42.5796Z" fill="#E6E4D5"/>
<path d="M353.9 70.9854V15.126H365.453V70.9854H353.9Z" fill="#E6E4D5"/>
<path d="M379.386 71.4932C377.186 71.4932 375.44 71.0911 374.149 70.2871C372.859 69.4831 371.896 68.3722 371.261 66.9546C370.626 65.5369 370.203 63.876 369.992 61.9717C369.801 60.0674 369.706 58.0256 369.706 55.8462V35.1528C369.706 31.4923 370.351 28.5301 371.642 26.2661C372.954 24.0021 375.165 22.8701 378.275 22.8701C380.582 22.8701 382.348 23.3674 383.576 24.3618C384.824 25.3351 385.787 26.6999 386.464 28.4561V15.126H398.017V70.9854H386.464V65.939C385.829 67.6528 384.983 69.007 383.925 70.0015C382.888 70.9959 381.375 71.4932 379.386 71.4932ZM383.734 62.6064C384.813 62.6064 385.533 62.1727 385.893 61.3052C386.273 60.4377 386.464 58.8825 386.464 56.6396V36.6128C386.464 35.4914 386.295 34.3911 385.956 33.312C385.639 32.2118 384.919 31.6616 383.798 31.6616C382.571 31.6616 381.798 32.18 381.481 33.2168C381.164 34.2536 381.005 35.3856 381.005 36.6128V56.6396C381.005 60.6175 381.915 62.6064 383.734 62.6064Z" fill="#E6E4D5"/>
<mask id="mask0_0_15" style="mask-type:alpha" maskUnits="userSpaceOnUse" x="11" y="11" width="388" height="61">
<path d="M24.457 71.4932C20.4157 71.4932 17.1572 70.2342 14.6816 67.7163C12.2272 65.1984 11 61.6755 11 57.1475V31.376C11 25.9593 12.0685 21.8122 14.2056 18.9346C16.3638 16.057 19.8656 14.6182 24.7109 14.6182C27.3558 14.6182 29.7044 15.1048 31.7568 16.0781C33.8304 17.0514 35.4596 18.5114 36.6445 20.458C37.8294 22.3835 38.4219 24.8167 38.4219 27.7578V37.4062H27.3135V29.1543C27.3135 27.4827 27.1019 26.3613 26.6787 25.79C26.2555 25.1976 25.5996 24.9014 24.7109 24.9014C23.6742 24.9014 22.9759 25.2822 22.6162 26.0439C22.2565 26.7845 22.0767 27.779 22.0767 29.0273V56.9888C22.0767 58.5334 22.2988 59.623 22.7432 60.2578C23.2087 60.8926 23.8646 61.21 24.7109 61.21C25.6631 61.21 26.3296 60.8185 26.7104 60.0356C27.1125 59.2528 27.3135 58.2371 27.3135 56.9888V46.9277H38.5488V57.4966C38.5488 62.4054 37.311 65.9707 34.8354 68.1924C32.3599 70.3929 28.9004 71.4932 24.457 71.4932Z" fill="#E6E4D5"/>
<path d="M42.1035 70.9854V15.126H53.7832V28.1069C54.3968 26.3296 55.3384 25.0177 56.6079 24.1714C57.8774 23.3039 59.3586 22.8701 61.0513 22.8701C64.3521 22.8701 66.7536 23.9069 68.2559 25.9805C69.7581 28.054 70.5093 30.8364 70.5093 34.3276V70.9854H59.02V35.0576C59.02 34.0208 58.7979 33.1745 58.3535 32.5186C57.9303 31.8626 57.2533 31.5347 56.3223 31.5347C55.5394 31.5347 54.9152 31.8732 54.4497 32.5503C54.0054 33.2274 53.7832 34.0314 53.7832 34.9624V70.9854H42.1035Z" fill="#E6E4D5"/>
<path d="M83.6489 71.4932C81.0041 71.4932 78.9834 70.8796 77.5869 69.6523C76.2116 68.4251 75.27 66.743 74.7622 64.606C74.2544 62.4689 74.0005 60.0462 74.0005 57.3379C74.0005 54.4391 74.2861 52.0693 74.8574 50.2285C75.4287 48.3665 76.402 46.8431 77.7773 45.6582C79.1738 44.4733 81.0887 43.4683 83.522 42.6431L90.5679 40.231V35.3433C90.5679 32.783 89.7321 31.5029 88.0605 31.5029C86.5371 31.5029 85.7754 32.5397 85.7754 34.6133V37.4697H74.7305C74.7093 37.3005 74.6987 37.0889 74.6987 36.835C74.6987 36.5599 74.6987 36.2531 74.6987 35.9146C74.6987 31.175 75.8096 27.8213 78.0312 25.8535C80.2741 23.8646 83.8182 22.8701 88.6636 22.8701C91.2026 22.8701 93.4772 23.325 95.4873 24.2349C97.4974 25.1235 99.0843 26.446 100.248 28.2021C101.433 29.9583 102.025 32.1271 102.025 34.7085V70.9854H90.7266V65.3359C90.1764 67.3249 89.2666 68.8483 87.9971 69.9062C86.7275 70.9642 85.2782 71.4932 83.6489 71.4932ZM88.124 62.6699C89.055 62.6699 89.6898 62.2785 90.0283 61.4956C90.3669 60.7127 90.5361 59.8664 90.5361 58.9565V45.6899C88.9704 46.3247 87.7537 47.1287 86.8862 48.1021C86.0187 49.0542 85.585 50.4613 85.585 52.3232V58.4487C85.585 61.2629 86.4313 62.6699 88.124 62.6699Z" fill="#E6E4D5"/>
<path d="M106.342 20.458V11H117.704V20.458H106.342ZM106.342 70.9854V23.3779H117.704V70.9854H106.342Z" fill="#E6E4D5"/>
<path d="M122.211 70.9854V23.3779H133.573V29.4399C133.996 27.6203 134.779 26.0757 135.922 24.8062C137.086 23.5155 138.694 22.8701 140.746 22.8701C144.047 22.8701 146.438 23.8857 147.919 25.917C149.421 27.9482 150.172 30.7306 150.172 34.2642V70.9854H138.969V35.4385C138.969 34.5075 138.778 33.6506 138.397 32.8677C138.017 32.0636 137.361 31.6616 136.43 31.6616C135.562 31.6616 134.917 31.9684 134.494 32.582C134.092 33.1745 133.838 33.9256 133.732 34.8354C133.626 35.7241 133.573 36.6128 133.573 37.5015V70.9854H122.211Z" fill="#E6E4D5"/>
<path d="M154.33 70.9854V15.126H165.121V70.9854H154.33Z" fill="#E6E4D5"/>
<path d="M169.564 70.9854V15.126H184.926C188.946 15.126 191.972 16.2474 194.003 18.4902C196.034 20.7119 197.05 23.9704 197.05 28.2656V54.418C197.05 59.7077 196.119 63.7913 194.257 66.6689C192.416 69.5466 189.179 70.9854 184.545 70.9854H169.564ZM180.8 61.1147H182.736C184.788 61.1147 185.814 60.1203 185.814 58.1313V29.313C185.814 27.451 185.561 26.2555 185.053 25.7266C184.566 25.1764 183.561 24.9014 182.038 24.9014H180.8V61.1147Z" fill="#E6E4D5"/>
<path d="M201.62 70.9854V15.126H223.964V25.917H212.982V36.8032H223.52V47.3086H212.982V60.0991H224.694V70.9854H201.62Z" fill="#E6E4D5"/>
<path d="M256.908 71.4932C251.809 71.4932 248.127 70.2236 245.863 67.6846C243.62 65.1455 242.499 61.1042 242.499 55.5605V50.1016H253.544V57.084C253.544 58.3747 253.734 59.3903 254.115 60.1309C254.517 60.8503 255.205 61.21 256.178 61.21C257.194 61.21 257.892 60.9137 258.273 60.3213C258.675 59.7288 258.876 58.7555 258.876 57.4014C258.876 55.6875 258.707 54.2593 258.368 53.1167C258.03 51.953 257.437 50.8527 256.591 49.8159C255.766 48.758 254.612 47.5308 253.131 46.1343L248.117 41.3735C244.372 37.84 242.499 33.7987 242.499 29.2495C242.499 24.4888 243.599 20.86 245.8 18.3633C248.021 15.8665 251.227 14.6182 255.417 14.6182C260.537 14.6182 264.166 15.9829 266.303 18.7124C268.461 21.4419 269.54 25.589 269.54 31.1538H258.178V27.3135C258.178 26.5518 257.956 25.9593 257.511 25.5361C257.088 25.113 256.506 24.9014 255.766 24.9014C254.877 24.9014 254.221 25.1553 253.798 25.6631C253.396 26.1497 253.195 26.7845 253.195 27.5674C253.195 28.3503 253.406 29.1966 253.83 30.1064C254.253 31.0163 255.089 32.0636 256.337 33.2485L262.78 39.4375C264.07 40.6647 265.255 41.966 266.334 43.3413C267.414 44.6955 268.281 46.2824 268.937 48.1021C269.593 49.9006 269.921 52.1011 269.921 54.7036C269.921 59.951 268.948 64.0664 267.001 67.0498C265.076 70.012 261.711 71.4932 256.908 71.4932Z" fill="#E6E4D5"/>
<path d="M273.476 70.9854V15.126H285.155V28.1069C285.769 26.3296 286.71 25.0177 287.98 24.1714C289.25 23.3039 290.731 22.8701 292.423 22.8701C295.724 22.8701 298.126 23.9069 299.628 25.9805C301.13 28.054 301.881 30.8364 301.881 34.3276V70.9854H290.392V35.0576C290.392 34.0208 290.17 33.1745 289.726 32.5186C289.302 31.8626 288.625 31.5347 287.694 31.5347C286.911 31.5347 286.287 31.8732 285.822 32.5503C285.377 33.2274 285.155 34.0314 285.155 34.9624V70.9854H273.476Z" fill="#E6E4D5"/>
<path d="M306.293 20.458V11H317.655V20.458H306.293ZM306.293 70.9854V23.3779H317.655V70.9854H306.293Z" fill="#E6E4D5"/>
<path d="M335.492 71.4932C332.107 71.4932 329.409 70.8584 327.399 69.5889C325.389 68.3193 323.95 66.4891 323.083 64.0981C322.215 61.7072 321.781 58.8296 321.781 55.4653V36.3271C321.781 31.9049 323.051 28.5618 325.59 26.2979C328.129 24.0127 331.62 22.8701 336.063 22.8701C345.204 22.8701 349.774 27.3558 349.774 36.3271V39.7866C349.774 43.9761 349.732 46.7902 349.647 48.229H333.144V57.4331C333.144 58.2795 333.196 59.1152 333.302 59.9404C333.408 60.7445 333.641 61.411 334 61.9399C334.381 62.4689 334.984 62.7334 335.81 62.7334C336.994 62.7334 337.735 62.2256 338.031 61.21C338.327 60.1732 338.476 58.8296 338.476 57.1792V52.6089H349.774V55.3066C349.774 58.8613 349.33 61.8447 348.441 64.2568C347.574 66.6478 346.093 68.4569 343.998 69.6841C341.924 70.8901 339.089 71.4932 335.492 71.4932ZM333.08 42.5796H338.476V36.1685C338.476 34.4546 338.264 33.2274 337.841 32.4868C337.418 31.7251 336.783 31.3442 335.937 31.3442C335.027 31.3442 334.318 31.7039 333.81 32.4233C333.323 33.1427 333.08 34.3911 333.08 36.1685V42.5796Z" fill="#E6E4D5"/>
<path d="M353.9 70.9854V15.126H365.453V70.9854H353.9Z" fill="#E6E4D5"/>
<path d="M379.386 71.4932C377.186 71.4932 375.44 71.0911 374.149 70.2871C372.859 69.4831 371.896 68.3722 371.261 66.9546C370.626 65.5369 370.203 63.876 369.992 61.9717C369.801 60.0674 369.706 58.0256 369.706 55.8462V35.1528C369.706 31.4923 370.351 28.5301 371.642 26.2661C372.954 24.0021 375.165 22.8701 378.275 22.8701C380.582 22.8701 382.348 23.3674 383.576 24.3618C384.824 25.3351 385.787 26.6999 386.464 28.4561V15.126H398.017V70.9854H386.464V65.939C385.829 67.6528 384.983 69.007 383.925 70.0015C382.888 70.9959 381.375 71.4932 379.386 71.4932ZM383.734 62.6064C384.813 62.6064 385.533 62.1727 385.893 61.3052C386.273 60.4377 386.464 58.8825 386.464 56.6396V36.6128C386.464 35.4914 386.295 34.3911 385.956 33.312C385.639 32.2118 384.919 31.6616 383.798 31.6616C382.571 31.6616 381.798 32.18 381.481 33.2168C381.164 34.2536 381.005 35.3856 381.005 36.6128V56.6396C381.005 60.6175 381.915 62.6064 383.734 62.6064Z" fill="#E6E4D5"/>
</mask>
<g mask="url(#mask0_0_15)">
<rect x="2.96875" y="44.9854" width="409" height="27" fill="#F4EFE2"/>
</g>
</svg>
