<svg width="12" height="9" viewBox="0 0 12 9" fill="none" xmlns="http://www.w3.org/2000/svg">
<path d="M7.22139 6.42783V8.52708C7.22139 8.7882 7.02137 9 6.77481 9H0.446582C0.200022 9 0 8.7882 0 8.52708V0.472918C0 0.211803 0.200022 0 0.446582 0H6.77481C7.02137 0 7.22139 0.211803 7.22139 0.472918V2.57217H6.31883V1.42674C6.31883 1.22761 6.16892 1.06559 5.98411 1.06559H1.23817C1.05291 1.06559 0.903009 1.22714 0.903009 1.42674V7.57326C0.903009 7.77238 1.05291 7.93394 1.23817 7.93394H5.98411C6.16892 7.93394 6.31883 7.77238 6.31883 7.57326V6.42783H7.22139ZM11.3521 4.02192H3.34937V5.08422H11.3521V4.02239V4.02192ZM12 4.4474L9.35586 1.67188L8.57948 2.48669L11.2241 5.26174L12 4.4474ZM11.2236 3.67768L8.52176 6.51331L9.29813 7.32811L11.9996 4.49249L11.2236 3.67768Z" fill="#2B292E"/>
</svg>
