<svg width="177" height="190" viewBox="0 0 177 190" fill="none" xmlns="http://www.w3.org/2000/svg">
<path d="M26.8803 16.8019L5.02556 19.6823L4.2793 42.0856L6.94451 46.3529H8.65025V60.1149L12.7014 63.5287L8.65025 66.5158V135.113H5.13217L3 138.74V163.063L25.601 166.797L28.3728 164.023L49.5879 167.437L50.7606 165.73L76.9863 170.638L78.4788 173.198L97.1353 176.719L99.4807 180.346L130.397 186L144.576 172.985L142.444 167.437L159.075 154.315L165.365 155.062L174 146.634V129.032L170.589 126.578V67.0492L168.03 64.8089L171.015 62.0352V48.2732L172.507 47.9531V29.4971L163.872 24.163H160.354V25.4431L142.124 16.8019L143.403 13.1747L127.945 4L99.9071 7.30715L98.5212 11.041L29.2257 18.8288L26.8803 16.8019Z" fill="#FFD666" stroke="black" stroke-width="6"/>
<circle cx="70.8104" cy="88.5143" r="34.7897" fill="#262827"/>
<circle cx="70.8104" cy="88.5143" r="30.2517" stroke="#FFD666" stroke-width="2"/>
<path d="M65.952 83.3035L67.315 83.4445C68.537 83.4445 69.6493 82.9588 70.652 81.9875C71.6546 80.9848 72.156 79.8098 72.156 78.4625C72.156 75.7365 71.0436 74.3735 68.819 74.3735C67.8476 74.3735 67.0486 74.7651 66.422 75.5485C65.8266 76.3005 65.529 77.1935 65.529 78.2275V78.6975H60.735C60.735 76.3475 61.487 74.4048 62.991 72.8695C64.5263 71.3028 66.4533 70.5195 68.772 70.5195C71.122 70.5195 73.0646 71.2871 74.6 72.8225C76.1353 74.3578 76.903 76.3005 76.903 78.6505C76.903 80.5305 76.339 82.1911 75.211 83.6325C74.1143 85.0738 72.6416 86.0138 70.793 86.4525L70.511 90.0715H65.952V83.3035ZM70.934 97.2155C70.934 98.0301 70.6363 98.7351 70.041 99.3305C69.477 99.8945 68.772 100.176 67.926 100.176C67.1113 100.176 66.4063 99.8788 65.811 99.2835C65.2156 98.6881 64.918 97.9831 64.918 97.1685C64.918 96.3538 65.2 95.6645 65.764 95.1005C66.3593 94.5051 67.08 94.2075 67.926 94.2075C68.772 94.2075 69.477 94.5051 70.041 95.1005C70.6363 95.6645 70.934 96.3695 70.934 97.2155Z" fill="#FFD666"/>
</svg>
