<svg width="11" height="11" viewBox="0 0 11 11" fill="none" xmlns="http://www.w3.org/2000/svg">
<path d="M11 4.32151V1.57171L10.1018 2.46854C9.60031 1.70991 8.91821 1.08731 8.11658 0.6565C7.31496 0.225691 6.41883 0.000124109 5.50846 0C2.46643 0 0 2.46225 0 5.5C0 8.53775 2.46643 11 5.50846 11C6.60474 11.0002 7.67615 10.6738 8.58561 10.0626C9.49506 9.45144 10.2012 8.5832 10.6136 7.56903C10.6608 7.45323 10.6599 7.32348 10.6112 7.20834C10.5625 7.09319 10.47 7.00208 10.354 6.95504C10.2966 6.93175 10.2351 6.91998 10.1731 6.9204C10.1111 6.92083 10.0498 6.93344 9.99274 6.95751C9.87741 7.00613 9.78616 7.09851 9.73905 7.21431C9.39713 8.05463 8.81193 8.77401 8.0583 9.28044C7.30467 9.78687 6.41687 10.0573 5.50846 10.0572C2.98773 10.0572 0.94424 8.01686 0.94424 5.5C0.94424 2.98314 2.98773 0.94279 5.50846 0.94279C7.13688 0.94279 8.60596 1.80309 9.4184 3.15049L8.24597 4.32151H11Z" fill="white"/>
</svg>
