<svg width="229" height="583" viewBox="0 0 229 583" fill="none" xmlns="http://www.w3.org/2000/svg">
<path d="M43.5 93L28 6.5L112 0L153 10.5L176 30L171 78L150 90V95H154.5L160 101H169L201 107.5V123.5H196.5V158C212.1 154.4 224.667 163.833 229 169L201 266.5L207 313.5L192.5 318.5L199 324.5V376.5L192.5 379.5V383.5L201 386.5L199 407.5L192.5 420.5H185L187 413.5L180 423L173.5 419L175.5 410.5L159.5 423H153.5L157 520.5H165L175.5 565L171.5 588.5H114V570.5L128 555L134 520.5H141.5L139.5 426H134V419L108.5 397.5L104 419L96 423V515H108.5L112.5 570.5L76 577.5L29.5 582C22.3 582 6.83333 576.667 0 574C0.4 556 12.1667 546.167 18 543.5H49.5L70.5 515H79.5V423L45 400.5C49.4 326.9 62.5 278.167 68.5 263L63.5 257.5V238.5L38.5 285.677V237.606L45 229.5L56 213L76.5 145L72 128L104.5 111.5V101H76.5L43.5 93Z" fill="#18181B"/>
</svg>
