<svg width="21" height="25" viewBox="0 0 21 25" fill="none" xmlns="http://www.w3.org/2000/svg">
<path d="M10.2429 0C6.85146 0 4.09715 2.7975 4.09715 6.25C4.09715 9.7025 6.85026 12.5 10.2429 12.5C13.6367 12.5 16.3898 9.7025 16.3898 6.25C16.3898 2.7975 13.6391 0 10.2429 0ZM10.2429 0C6.85146 0 4.09715 2.7975 4.09715 6.25C4.09715 9.7025 6.85026 12.5 10.2429 12.5C13.6367 12.5 16.3898 9.7025 16.3898 6.25C16.3898 2.7975 13.6391 0 10.2429 0ZM7.94018 14.5837C3.5552 14.5837 0 18.1988 0 22.6563V23.175C0 24.9988 3.5552 25 7.94018 25H13.0622C17.446 25 21 24.9325 21 23.175V22.6563C21 18.1988 17.446 14.5837 13.0622 14.5837H7.94018Z" fill="#FFD666"/>
</svg>
